<svg width="25" height="25" viewBox="0 0 25 25" fill="none" xmlns="http://www.w3.org/2000/svg">
<path fill-rule="evenodd" clip-rule="evenodd" d="M9.8321 0.74802C10.5779 0.417327 11.4221 0.417327 12.1679 0.74802L20.7995 4.5754C22.7751 5.45141 22.1703 8.5 20.0209 8.5H1.97906C-0.170331 8.5 -0.775109 5.4514 1.20047 4.5754L9.8321 0.74802ZM11.3893 2.62765C11.1407 2.51742 10.8593 2.51742 10.6107 2.62765L2.41076 6.26352C2.31198 6.30732 2.34324 6.45494 2.45129 6.45494H19.5487C19.6568 6.45494 19.688 6.30732 19.5892 6.26352L11.3893 2.62765Z" fill="white"/>
<path d="M1 21.5C1 20.9477 1.44772 20.5 2 20.5H20C20.5523 20.5 21 20.9477 21 21.5C21 22.0523 20.5523 22.5 20 22.5H2C1.44772 22.5 1 22.0523 1 21.5Z" fill="white"/>
<path d="M10 18.5C10 19.0523 10.4477 19.5 11 19.5C11.5523 19.5 12 19.0523 12 18.5V10.5C12 9.9477 11.5523 9.5 11 9.5C10.4477 9.5 10 9.9477 10 10.5V18.5Z" fill="#8B62F1"/>
<path d="M5 19.5C4.44772 19.5 4 19.0523 4 18.5V10.5C4 9.9477 4.44771 9.5 5 9.5C5.55228 9.5 6 9.9477 6 10.5V18.5C6 19.0523 5.55229 19.5 5 19.5Z" fill="#8B62F1"/>
<path d="M16 18.5C16 19.0523 16.4477 19.5 17 19.5C17.5523 19.5 18 19.0523 18 18.5V10.5C18 9.9477 17.5523 9.5 17 9.5C16.4477 9.5 16 9.9477 16 10.5V18.5Z" fill="#8B62F1"/>
<rect x="11.5" y="11.5" width="13" height="13" rx="6.5" fill="#242425"/>
<path d="M18 23.4166C20.9915 23.4166 23.4167 20.9915 23.4167 17.9999C23.4167 15.0084 20.9915 12.5833 18 12.5833C15.0085 12.5833 12.5833 15.0084 12.5833 17.9999C12.5833 20.9915 15.0085 23.4166 18 23.4166Z" stroke="white"/>
<path d="M18 20.7083V20.9791V21.2499" stroke="white" stroke-linecap="round"/>
<path d="M18 14.75V15.0208V15.2917" stroke="white" stroke-linecap="round"/>
<path d="M19.625 16.6459C19.625 15.898 18.8975 15.2917 18 15.2917C17.1025 15.2917 16.375 15.898 16.375 16.6459C16.375 17.3938 17.1025 18.0001 18 18.0001C18.8975 18.0001 19.625 18.6064 19.625 19.3542C19.625 20.1021 18.8975 20.7084 18 20.7084C17.1025 20.7084 16.375 20.1021 16.375 19.3542" stroke="white" stroke-linecap="round"/>
</svg>
