<svg width="25" height="24" viewBox="0 0 25 24" fill="none" xmlns="http://www.w3.org/2000/svg">
<g clip-path="url(#clip0_260_2509)">
<path d="M11.025 13.1821H13.975C16.534 13.1821 18.5741 11.097 18.5741 8.583C18.5741 7.76183 18.5741 5.39561 18.5741 4.59994C18.5741 2.06356 16.5109 0 13.975 0C10.3802 0 11.7759 0 11.025 0C8.48903 0 6.4259 2.06356 6.4259 4.59994C6.4259 5.43128 6.4259 7.64664 6.4259 8.583C6.4259 11.0941 8.46172 13.1821 11.025 13.1821ZM13.975 1.29236C15.6665 1.29236 17.2817 2.58722 17.2817 4.76881H15.7938C13.7506 4.76881 12.0342 3.28871 11.7219 1.29236H13.975ZM7.71826 4.59994C7.71826 3.02524 8.83969 1.65543 10.3928 1.3537C10.2418 2.88515 9.16252 4.16881 7.71826 4.60675V4.59994ZM7.71826 5.94021C9.1863 5.61548 10.4156 4.65112 11.105 3.36384C12.0452 4.98894 13.8011 6.06117 15.7938 6.06117H17.2817V8.583C17.2817 10.3949 15.8104 11.8897 13.975 11.8897H11.025C9.1838 11.8897 7.71826 10.3904 7.71826 8.583V5.94021Z" fill="white"/>
<path d="M15.1561 14.3593L15.1546 14.3588C13.5415 13.922 11.4573 13.9221 9.84453 14.3591C5.79324 15.4533 2.96323 19.1521 2.96323 23.3539C2.96323 23.7108 3.25254 24.0001 3.60941 24.0001C3.9947 24.0001 21.0053 24.0001 21.3906 24.0001C21.7474 24.0001 22.0367 23.7108 22.0367 23.3539C22.0367 19.1502 19.2074 15.4517 15.1561 14.3593ZM9.61311 21.8984L10.6383 22.7077H4.28161C4.54163 19.4859 6.72865 16.7077 9.81713 15.7145L10.6865 16.6301L9.3916 21.2156C9.32061 21.467 9.40797 21.7365 9.61311 21.8984ZM12.5 22.5307L10.7526 21.1514L12.0303 16.6274C12.0922 16.4081 12.034 16.1722 11.877 16.0068L11.2963 15.3953C12.0788 15.3014 12.9211 15.3014 13.7036 15.3954L13.123 16.0068C12.966 16.1722 12.9077 16.408 12.9697 16.6274L14.2473 21.1514L12.5 22.5307ZM14.3617 22.7076L15.3868 21.8984C15.5919 21.7365 15.6793 21.467 15.6083 21.2156L14.3133 16.6301C14.9842 15.9236 14.7853 16.133 15.1828 15.7143C18.2714 16.7061 20.4585 19.4841 20.7183 22.7076H14.3617Z" fill="#8B62F1"/>
</g>
<defs>
<clipPath id="clip0_260_2509">
<rect width="24" height="24" fill="white" transform="translate(0.5)"/>
</clipPath>
</defs>
</svg>
