<svg width="24" height="24" viewBox="0 0 24 24" fill="none" xmlns="http://www.w3.org/2000/svg">
<g clip-path="url(#clip0_258_905)">
<path d="M15.9141 10.2422V2.97656C15.9141 2.6918 15.6832 2.46094 15.3984 2.46094H6.02344C5.73867 2.46094 5.50781 2.6918 5.50781 2.97656V10.2422C5.50781 10.527 5.73867 10.7578 6.02344 10.7578H15.3984C15.6832 10.7578 15.9141 10.527 15.9141 10.2422ZM14.8828 9.72656H6.53906V3.49219H14.8828V9.72656Z" fill="white"/>
<path d="M7.89844 14.1797H6.49219C6.20742 14.1797 5.97656 14.4105 5.97656 14.6953C5.97656 14.9801 6.20742 15.2109 6.49219 15.2109H7.89844C8.1832 15.2109 8.41406 14.9801 8.41406 14.6953C8.41406 14.4105 8.18325 14.1797 7.89844 14.1797Z" fill="white"/>
<path d="M7.89844 16.2891H6.49219C6.20742 16.2891 5.97656 16.5199 5.97656 16.8047C5.97656 17.0895 6.20742 17.3203 6.49219 17.3203H7.89844C8.1832 17.3203 8.41406 17.0895 8.41406 16.8047C8.41406 16.5199 8.18325 16.2891 7.89844 16.2891Z" fill="white"/>
<path d="M7.89844 12.0703H6.49219C6.20742 12.0703 5.97656 12.3012 5.97656 12.5859C5.97656 12.8707 6.20742 13.1016 6.49219 13.1016H7.89844C8.1832 13.1016 8.41406 12.8707 8.41406 12.5859C8.41406 12.3012 8.18325 12.0703 7.89844 12.0703Z" fill="white"/>
<path d="M11.4141 14.1797H10.0078C9.72305 14.1797 9.49219 14.4105 9.49219 14.6953C9.49219 14.9801 9.72305 15.2109 10.0078 15.2109H11.4141C11.6988 15.2109 11.9297 14.9801 11.9297 14.6953C11.9297 14.4105 11.6989 14.1797 11.4141 14.1797Z" fill="white"/>
<path d="M11.4141 12.0703H10.0078C9.72305 12.0703 9.49219 12.3012 9.49219 12.5859C9.49219 12.8707 9.72305 13.1016 10.0078 13.1016H11.4141C11.6988 13.1016 11.9297 12.8707 11.9297 12.5859C11.9297 12.3012 11.6989 12.0703 11.4141 12.0703Z" fill="white"/>
<path d="M11.4141 16.2891H10.0078C9.72305 16.2891 9.49219 16.5199 9.49219 16.8047C9.49219 17.0895 9.72305 17.3203 10.0078 17.3203H11.4141C11.6988 17.3203 11.9297 17.0895 11.9297 16.8047C11.9297 16.5199 11.6989 16.2891 11.4141 16.2891Z" fill="white"/>
<path d="M14.9297 12.0703H13.5234C13.2387 12.0703 13.0078 12.3012 13.0078 12.5859C13.0078 12.8707 13.2387 13.1016 13.5234 13.1016H14.9297C15.2145 13.1016 15.4453 12.8707 15.4453 12.5859C15.4453 12.3012 15.2145 12.0703 14.9297 12.0703Z" fill="white"/>
<path d="M14.9297 14.1797H13.5234C13.2387 14.1797 13.0078 14.4105 13.0078 14.6953C13.0078 14.9801 13.2387 15.2109 13.5234 15.2109H14.9297C15.2145 15.2109 15.4453 14.9801 15.4453 14.6953C15.4453 14.4105 15.2145 14.1797 14.9297 14.1797Z" fill="white"/>
<path d="M15.4453 16.8047C15.4453 16.5199 15.2145 16.2891 14.9297 16.2891H13.5234C13.2387 16.2891 13.0078 16.5199 13.0078 16.8047C13.0078 17.0895 13.2387 17.3203 13.5234 17.3203H14.9297C15.2145 17.3203 15.4453 17.0895 15.4453 16.8047Z" fill="white"/>
<path d="M19.0312 2.8125H18.2578V1.56361C18.2578 0.701437 17.4658 0 16.4922 0H4.9297C3.95616 0 3.16406 0.701437 3.16406 1.56361V20.0926C3.16406 20.9548 3.95616 21.6562 4.9297 21.6562H6.25781C6.54258 21.6562 6.77344 21.4254 6.77344 21.1406C6.77344 20.8559 6.54258 20.625 6.25781 20.625H4.9297C4.53848 20.625 4.19531 20.3762 4.19531 20.0926V1.56361C4.19531 1.27505 4.53164 1.03125 4.9297 1.03125H16.4922C16.8834 1.03125 17.2266 1.28002 17.2266 1.56361V20.0926C17.2266 20.3762 16.8834 20.625 16.4922 20.625H15.1641C14.8793 20.625 14.6484 20.8558 14.6484 21.1406C14.6484 21.4253 14.8793 21.6562 15.1641 21.6562H16.4922C17.4658 21.6562 18.2578 20.9548 18.2578 20.0926V18.8438H19.0312C20.0264 18.8438 20.8359 18.0342 20.8359 17.0391V4.61719C20.8359 3.62208 20.0263 2.8125 19.0312 2.8125ZM19.8047 17.0391C19.8047 17.4655 19.4578 17.8125 19.0312 17.8125H18.2578V3.84375H19.0312C19.4578 3.84375 19.8047 4.19072 19.8047 4.61719V17.0391Z" fill="white"/>
<path d="M6.49219 24C6.40875 24 6.32517 23.9797 6.24891 23.939C6.08123 23.8492 5.97656 23.6745 5.97656 23.4843V19.2656C5.97656 18.9809 6.20742 18.75 6.49219 18.75H14.9297C15.2145 18.75 15.4453 18.9809 15.4453 19.2656V23.4843C15.4453 23.6745 15.3407 23.8492 15.173 23.9389C15.0053 24.0287 14.8019 24.0188 14.6437 23.9133L13.5235 23.1665L12.4033 23.9134C12.2301 24.0289 12.0044 24.0289 11.8312 23.9134L10.7109 23.1665L9.59072 23.9134C9.41752 24.0289 9.19186 24.0289 9.01866 23.9134L7.89844 23.1665L6.77822 23.9133C6.69197 23.9708 6.59222 24 6.49219 24ZM10.7109 22.0312C10.8106 22.0312 10.9103 22.0601 10.997 22.1178L12.1172 22.8647L13.2375 22.1178C13.4106 22.0023 13.6363 22.0023 13.8095 22.1178L14.414 22.5209V19.7813H7.00777V22.5209L7.61236 22.1178C7.78556 22.0023 8.01122 22.0023 8.18442 22.1178L9.30464 22.8646L10.4249 22.1178C10.5115 22.06 10.6112 22.0312 10.7109 22.0312Z" fill="#8B62F1"/>
<path d="M10.3289 7.93859C10.1969 7.93859 10.065 7.88825 9.96426 7.78756L9.10116 6.92445C8.89983 6.72308 8.89978 6.39659 9.10116 6.19526C9.30253 5.99389 9.62901 5.99389 9.83034 6.19526L10.3289 6.69378L11.5915 5.43106C11.7929 5.22969 12.1193 5.22969 12.3208 5.43106C12.5221 5.63244 12.5221 5.95892 12.3208 6.1603L10.6935 7.78761C10.5928 7.88825 10.4608 7.93859 10.3289 7.93859Z" fill="#8B62F1"/>
</g>
<defs>
<clipPath id="clip0_258_905">
<rect width="24" height="24" fill="white"/>
</clipPath>
</defs>
</svg>
