<svg width="25" height="24" viewBox="0 0 25 24" fill="none" xmlns="http://www.w3.org/2000/svg">
<g clip-path="url(#clip0_260_2315)">
<path d="M22.3824 15.0061V10.5881H16.7354V14.1175H15.3236V10.5881H9.67654V14.1175H8.26478V10.5881H2.61772V15.0061C-1.3012 17.752 0.594096 23.9643 5.44125 23.9999H19.5589C24.4091 23.9633 26.2993 17.7501 22.3824 15.0061ZM18.1471 11.9999H20.9707V14.3234C19.9397 14.0155 19.2572 14.1513 18.1471 14.1175V11.9999ZM11.0883 11.9999H13.9118V14.1175H11.0883V11.9999ZM4.02948 11.9999H6.85301V14.1175C5.74017 14.1513 5.06083 14.0153 4.02948 14.3234V11.9999ZM19.5589 22.5881H5.44125C0.757861 22.3937 0.761484 15.722 5.44125 15.5293H19.5589C24.2423 15.7237 24.2387 22.3955 19.5589 22.5881Z" fill="white"/>
<path d="M6.14713 16.9412C4.97946 16.9412 4.02948 17.8911 4.02948 19.0588C4.14581 21.8682 8.14887 21.8673 8.26477 19.0588C8.26477 17.8911 7.3148 16.9412 6.14713 16.9412ZM6.14713 19.7647C5.7579 19.7647 5.44124 19.448 5.44124 19.0588C5.48002 18.1223 6.81437 18.1226 6.85301 19.0588C6.85301 19.448 6.53635 19.7647 6.14713 19.7647Z" fill="#8B62F1"/>
<path d="M12.5001 16.9412C11.3324 16.9412 10.3824 17.8911 10.3824 19.0588C10.4988 21.8682 14.5018 21.8673 14.6177 19.0588C14.6177 17.8911 13.6678 16.9412 12.5001 16.9412ZM12.5001 19.7647C12.1108 19.7647 11.7942 19.448 11.7942 19.0588C11.833 18.1223 13.1673 18.1226 13.206 19.0588C13.206 19.448 12.8893 19.7647 12.5001 19.7647Z" fill="#8B62F1"/>
<path d="M18.853 16.9412C17.6853 16.9412 16.7354 17.8911 16.7354 19.0588C16.8517 21.8682 20.8547 21.8673 20.9706 19.0588C20.9706 17.8911 20.0207 16.9412 18.853 16.9412ZM18.853 19.7647C18.4637 19.7647 18.1471 19.448 18.1471 19.0588C18.1859 18.1223 19.5202 18.1226 19.5589 19.0588C19.5589 19.448 19.2422 19.7647 18.853 19.7647Z" fill="#8B62F1"/>
<path d="M11.7942 3.65082C11.1364 3.88414 10.6269 4.43351 10.45 5.11577L8.41261 5.79492L7.59511 8.24739L8.93445 8.69384L9.52871 6.91101L10.5886 6.55774C11.35 8.15925 13.6508 8.15831 14.4115 6.55774L15.4714 6.91101L16.0657 8.69384L17.405 8.24739L16.5875 5.79492L14.5502 5.11577C14.3732 4.43351 13.8638 3.88414 13.206 3.65082V1.41176H18.853V0H6.14716V1.41176H11.7942V3.65082ZM12.5001 6.35294C12.1108 6.35294 11.7942 6.03628 11.7942 5.64706C11.833 4.71059 13.1673 4.71087 13.206 5.64706C13.206 6.03628 12.8893 6.35294 12.5001 6.35294Z" fill="white"/>
</g>
<defs>
<clipPath id="clip0_260_2315">
<rect width="24" height="24" fill="white" transform="translate(0.5)"/>
</clipPath>
</defs>
</svg>
