<svg width="25" height="24" viewBox="0 0 25 24" fill="none" xmlns="http://www.w3.org/2000/svg">
<path d="M8.00627 15.2646C8.11658 15.6638 8.52966 15.8981 8.92891 15.7878C9.32817 15.6775 9.56242 15.2644 9.45211 14.8651L8.00627 15.2646ZM3.70052 4.72451C3.30139 4.61377 2.88805 4.84756 2.77731 5.24669C2.66657 5.64583 2.90036 6.05917 3.2995 6.16991L3.70052 4.72451ZM20.6886 15.7253C21.0895 15.6212 21.3301 15.2117 21.2259 14.8108C21.1217 14.4099 20.7123 14.1694 20.3114 14.2736L20.6886 15.7253ZM10.6978 17.5587C11.0074 18.6794 10.3278 19.8617 9.1239 20.1746L9.50119 21.6264C11.4782 21.1126 12.6863 19.1238 12.1436 17.1593L10.6978 17.5587ZM9.1239 20.1746C7.91217 20.4895 6.69623 19.7862 6.38402 18.6561L4.93818 19.0555C5.4783 21.0106 7.53197 22.1382 9.50119 21.6264L9.1239 20.1746ZM6.38402 18.6561C6.07442 17.5354 6.75401 16.3531 7.95791 16.0402L7.58062 14.5884C5.60357 15.1022 4.39545 17.091 4.93818 19.0555L6.38402 18.6561ZM7.95791 16.0402C9.16963 15.7253 10.3856 16.4286 10.6978 17.5587L12.1436 17.1593C11.6035 15.2042 9.54983 14.0767 7.58062 14.5884L7.95791 16.0402ZM9.45211 14.8651L7.29985 7.07464L5.85401 7.47408L8.00627 15.2646L9.45211 14.8651ZM5.40422 5.19719L3.70052 4.72451L3.2995 6.16991L5.0032 6.64259L5.40422 5.19719ZM7.29985 7.07464C7.04672 6.15841 6.32111 5.45158 5.40422 5.19719L5.0032 6.64259C5.42879 6.76067 5.74574 7.08217 5.85401 7.47408L7.29985 7.07464ZM11.6093 18.0849L20.6886 15.7253L20.3114 14.2736L11.232 16.6331L11.6093 18.0849Z" fill="white"/>
<path d="M10.0654 8.73049C9.5804 6.97492 9.3379 6.09714 9.74954 5.40562C10.1612 4.71409 11.0662 4.47889 12.8763 4.00849L14.7962 3.50955C16.6062 3.03915 17.5113 2.80394 18.2242 3.20319C18.9372 3.60244 19.1797 4.48023 19.6647 6.2358L20.1792 8.09786C20.6642 9.85343 20.9067 10.7312 20.495 11.4227C20.0834 12.1143 19.1784 12.3495 17.3683 12.8199L15.4484 13.3188C13.6384 13.7892 12.7333 14.0244 12.0203 13.6252C11.3073 13.2259 11.0648 12.3481 10.5798 10.5926L10.0654 8.73049Z" stroke="#8B62F1" stroke-width="1.5"/>
</svg>
