<svg width="24" height="35" viewBox="0 0 24 35" fill="none" xmlns="http://www.w3.org/2000/svg">
<path d="M21 18.5L17 20.5M17 20.5C17 20.5 16.6953 20.6524 16.5 20.75C14.7426 21.6287 12 23 12 23M17 20.5V24M17 20.5L7.5 15.5M12 23L3 18.5M12 23V32.5" stroke="#8B62F1" stroke-width="1.5" stroke-linecap="round"/>
<path d="M15.5777 14.382L17.5777 15.4315C19.7294 16.5607 20.8052 17.1252 21.4026 18.1397C22 19.1543 22 20.4167 22 22.9415V23.0585C22 25.5833 22 26.8458 21.4026 27.8603C20.8052 28.8748 19.7294 29.4393 17.5777 30.5685L15.5777 31.618C13.8221 32.5393 12.9443 33 12 33C11.0557 33 10.1779 32.5393 8.42229 31.618L6.42229 30.5685C4.27063 29.4393 3.19479 28.8748 2.5974 27.8603C2 26.8458 2 25.5833 2 23.0585V22.9415C2 20.4167 2 19.1543 2.5974 18.1397C3.19479 17.1252 4.27063 16.5607 6.42229 15.4315L8.42229 14.382C10.1779 13.4607 11.0557 13 12 13C12.9443 13 13.8221 13.4607 15.5777 14.382Z" stroke="white" stroke-width="1.5" stroke-linecap="round"/>
<path d="M20.2666 10.8444C19.827 8.98683 18.7966 7.32203 17.3302 6.09998C15.8638 4.87793 14.0405 4.1646 12.1342 4.0671C10.2278 3.96961 8.34123 4.49321 6.75781 5.55929C5.17438 6.62537 3.97955 8.17637 3.35275 9.97939" stroke="#8B62F1" stroke-width="1.5" stroke-linecap="round"/>
<path d="M7.01756 8.66276L3.23555 10.2225L1.80681 6.66009" stroke="#8B62F1" stroke-width="1.5" stroke-linecap="round"/>
</svg>
