<svg width="29" height="29" viewBox="0 0 29 29" fill="none" xmlns="http://www.w3.org/2000/svg">
<path d="M15.1875 5.78125H20.25V10.1097C20.25 10.3044 20.1727 10.4911 20.035 10.6287C19.8973 10.7664 19.7106 10.8438 19.5159 10.8438H15.9216C15.7269 10.8438 15.5402 10.7664 15.4025 10.6287C15.2648 10.4911 15.1875 10.3044 15.1875 10.1097V5.78125Z" fill="#8B62F1"/>
<path d="M24.4688 23.5H10.9688C10.2974 23.5 9.65359 23.2333 9.17889 22.7586C8.70418 22.2839 8.4375 21.6401 8.4375 20.9688V7.46875C8.4375 6.79742 8.70418 6.15359 9.17889 5.67889C9.65359 5.20418 10.2974 4.9375 10.9688 4.9375H24.4688C25.1401 4.9375 25.7839 5.20418 26.2586 5.67889C26.7333 6.15359 27 6.79742 27 7.46875V20.9688C27 21.6401 26.7333 22.2839 26.2586 22.7586C25.7839 23.2333 25.1401 23.5 24.4688 23.5ZM10.9688 6.625C10.745 6.625 10.5304 6.71389 10.3721 6.87213C10.2139 7.03036 10.125 7.24497 10.125 7.46875V20.9688C10.125 21.1925 10.2139 21.4071 10.3721 21.5654C10.5304 21.7236 10.745 21.8125 10.9688 21.8125H24.4688C24.6925 21.8125 24.9071 21.7236 25.0654 21.5654C25.2236 21.4071 25.3125 21.1925 25.3125 20.9688V7.46875C25.3125 7.24497 25.2236 7.03036 25.0654 6.87213C24.9071 6.71389 24.6925 6.625 24.4688 6.625H10.9688Z" fill="white"/>
<path d="M14.3438 20.125H12.6562C12.4325 20.125 12.2179 20.0361 12.0596 19.8779C11.9014 19.7196 11.8125 19.505 11.8125 19.2812C11.8125 19.0575 11.9014 18.8429 12.0596 18.6846C12.2179 18.5264 12.4325 18.4375 12.6562 18.4375H14.3438C14.5675 18.4375 14.7821 18.5264 14.9404 18.6846C15.0986 18.8429 15.1875 19.0575 15.1875 19.2812C15.1875 19.505 15.0986 19.7196 14.9404 19.8779C14.7821 20.0361 14.5675 20.125 14.3438 20.125Z" fill="#8B62F1"/>
<path d="M5.90625 15.0625H4.21875C3.99497 15.0625 3.78036 14.9736 3.62213 14.8154C3.4639 14.6571 3.375 14.4425 3.375 14.2188C3.375 13.995 3.4639 13.7804 3.62213 13.6221C3.78036 13.4639 3.99497 13.375 4.21875 13.375H5.90625C6.13003 13.375 6.34464 13.4639 6.50287 13.6221C6.6611 13.7804 6.75 13.995 6.75 14.2188C6.75 14.4425 6.6611 14.6571 6.50287 14.8154C6.34464 14.9736 6.13003 15.0625 5.90625 15.0625Z" fill="white"/>
<path d="M5.90625 11.6875H2.53125C2.30747 11.6875 2.09286 11.5986 1.93463 11.4404C1.77639 11.2821 1.6875 11.0675 1.6875 10.8438C1.6875 10.62 1.77639 10.4054 1.93463 10.2471C2.09286 10.0889 2.30747 10 2.53125 10H5.90625C6.13003 10 6.34464 10.0889 6.50287 10.2471C6.66111 10.4054 6.75 10.62 6.75 10.8438C6.75 11.0675 6.66111 11.2821 6.50287 11.4404C6.34464 11.5986 6.13003 11.6875 5.90625 11.6875Z" fill="white"/>
<path d="M5.90625 8.3125H0.84375C0.619974 8.3125 0.405362 8.22361 0.247129 8.06537C0.0888949 7.90714 0 7.69253 0 7.46875C0 7.24497 0.0888949 7.03036 0.247129 6.87213C0.405362 6.7139 0.619974 6.625 0.84375 6.625H5.90625C6.13003 6.625 6.34464 6.7139 6.50287 6.87213C6.66111 7.03036 6.75 7.24497 6.75 7.46875C6.75 7.69253 6.66111 7.90714 6.50287 8.06537C6.34464 8.22361 6.13003 8.3125 5.90625 8.3125Z" fill="white"/>
</svg>
