<svg width="16" height="16" viewBox="0 0 16 16" fill="none" xmlns="http://www.w3.org/2000/svg">
<g opacity="0.5">
<path d="M1.33325 8.00002C1.33325 5.48586 1.33325 4.22879 2.1143 3.44773C2.89535 2.66669 4.15243 2.66669 6.66658 2.66669H9.33325C11.8474 2.66669 13.1045 2.66669 13.8855 3.44773C14.6666 4.22879 14.6666 5.48586 14.6666 8.00002V9.33335C14.6666 11.8475 14.6666 13.1046 13.8855 13.8856C13.1045 14.6667 11.8474 14.6667 9.33325 14.6667H6.66658C4.15243 14.6667 2.89535 14.6667 2.1143 13.8856C1.33325 13.1046 1.33325 11.8475 1.33325 9.33335V8.00002Z" stroke="#101010"/>
<path d="M4.66675 2.66669V1.66669" stroke="#101010" stroke-linecap="round"/>
<path d="M11.3333 2.66669V1.66669" stroke="#101010" stroke-linecap="round"/>
<path d="M1.66675 6H14.3334" stroke="#101010" stroke-linecap="round"/>
<path d="M12.0001 11.3334C12.0001 11.7016 11.7016 12 11.3334 12C10.9652 12 10.6667 11.7016 10.6667 11.3334C10.6667 10.9652 10.9652 10.6667 11.3334 10.6667C11.7016 10.6667 12.0001 10.9652 12.0001 11.3334Z" fill="#101010"/>
<path d="M12.0001 8.66667C12.0001 9.03487 11.7016 9.33333 11.3334 9.33333C10.9652 9.33333 10.6667 9.03487 10.6667 8.66667C10.6667 8.29847 10.9652 8 11.3334 8C11.7016 8 12.0001 8.29847 12.0001 8.66667Z" fill="#101010"/>
<path d="M8.66659 11.3334C8.66659 11.7016 8.36812 12 7.99992 12C7.63172 12 7.33325 11.7016 7.33325 11.3334C7.33325 10.9652 7.63172 10.6667 7.99992 10.6667C8.36812 10.6667 8.66659 10.9652 8.66659 11.3334Z" fill="#101010"/>
<path d="M8.66659 8.66667C8.66659 9.03487 8.36812 9.33333 7.99992 9.33333C7.63172 9.33333 7.33325 9.03487 7.33325 8.66667C7.33325 8.29847 7.63172 8 7.99992 8C8.36812 8 8.66659 8.29847 8.66659 8.66667Z" fill="#101010"/>
<path d="M5.33333 11.3334C5.33333 11.7016 5.03485 12 4.66667 12C4.29848 12 4 11.7016 4 11.3334C4 10.9652 4.29848 10.6667 4.66667 10.6667C5.03485 10.6667 5.33333 10.9652 5.33333 11.3334Z" fill="#101010"/>
<path d="M5.33333 8.66667C5.33333 9.03487 5.03485 9.33333 4.66667 9.33333C4.29848 9.33333 4 9.03487 4 8.66667C4 8.29847 4.29848 8 4.66667 8C5.03485 8 5.33333 8.29847 5.33333 8.66667Z" fill="#101010"/>
</g>
</svg>
