<svg width="25" height="24" viewBox="0 0 25 24" fill="none" xmlns="http://www.w3.org/2000/svg">
<path d="M12.5 19H6.7C5.57989 19 5.01984 19 4.59202 18.782C4.21569 18.5903 3.90973 18.2843 3.71799 17.908C3.5 17.4802 3.5 16.9201 3.5 15.8V8.2C3.5 7.0799 3.5 6.51984 3.71799 6.09202C3.90973 5.71569 4.21569 5.40973 4.59202 5.21799C5.01984 5 5.5799 5 6.7 5H18.3C19.4201 5 19.9802 5 20.408 5.21799C20.7843 5.40973 21.0903 5.71569 21.282 6.09202C21.5 6.51984 21.5 7.0799 21.5 8.2V14M3.5 9H21.5" stroke="#101010" stroke-width="1.5" stroke-linecap="round" stroke-linejoin="round"/>
<path d="M21.5 18.0007L16.5 18" stroke="#8B62F1" stroke-width="1.5" stroke-linecap="round" stroke-linejoin="round"/>
</svg>
