<svg width="18" height="18" viewBox="0 0 18 18" fill="none" xmlns="http://www.w3.org/2000/svg">
<path d="M5.25 12.75H3.75C2.92157 12.75 2.25 12.0784 2.25 11.25V8.25C2.25 7.00736 3.25736 6 4.5 6H5.25M5.25 12.75V10.5H12.75V12.75M5.25 12.75V13.5C5.25 14.3284 5.92157 15 6.75 15H11.25C12.0784 15 12.75 14.3284 12.75 13.5V12.75M5.25 6V4.5C5.25 3.67157 5.92157 3 6.75 3H11.25C12.0784 3 12.75 3.67157 12.75 4.5V6M5.25 6H12.75M12.75 12.75H14.25C15.0784 12.75 15.75 12.0784 15.75 11.25V8.25C15.75 7.00736 14.7427 6 13.5 6H12.75M11.25 8.25H12.75" stroke="#157BB0" stroke-linecap="round" stroke-linejoin="round"/>
</svg>
