<svg width="24" height="36" viewBox="0 0 24 36" fill="none" xmlns="http://www.w3.org/2000/svg">
<path d="M20.2666 10.8443C19.827 8.98677 18.7966 7.32197 17.3302 6.09992C15.8638 4.87787 14.0405 4.16454 12.1341 4.06704C10.2278 3.96955 8.34121 4.49315 6.75779 5.55923C5.17437 6.62531 3.97953 8.17631 3.35273 9.97933" stroke="#8B62F1" stroke-width="1.5" stroke-linecap="round"/>
<path d="M7.01755 8.66282L3.23555 10.2226L1.8068 6.66015" stroke="#8B62F1" stroke-width="1.5" stroke-linecap="round"/>
<path d="M19 20.7305L18.2896 17.8883C18.0157 16.7924 17.8787 16.2444 17.5978 15.8318C17.318 15.4208 16.9378 15.104 16.5008 14.9176C16.0619 14.7305 15.5413 14.7305 14.5 14.7305M4 20.7305L4.7104 17.8883C4.98432 16.7924 5.12128 16.2444 5.40221 15.8318C5.68199 15.4208 6.06216 15.104 6.49922 14.9176C6.93808 14.7305 7.45872 14.7305 8.5 14.7305" stroke="#8B62F1" stroke-width="1.5"/>
<path d="M2.93359 27.807C2.03028 24.0892 1.57863 22.2303 2.52709 20.9805C3.47555 19.7305 5.33778 19.7305 9.06224 19.7305H13.9378C17.6622 19.7305 19.5244 19.7305 20.4729 20.9805C21.4214 22.2303 20.9697 24.0892 20.0665 27.807C19.4919 30.1716 19.2046 31.3538 18.3478 32.0422C17.491 32.7305 16.3066 32.7305 13.9378 32.7305H9.06224C6.69341 32.7305 5.509 32.7305 4.65219 32.0422C3.79538 31.3538 3.50812 30.1716 2.93359 27.807Z" stroke="#101010" stroke-width="1.5"/>
<path d="M8 14.7305C8 14.1782 8.52234 13.7305 9.16667 13.7305H13.8333C14.4777 13.7305 15 14.1782 15 14.7305C15 15.2828 14.4777 15.7305 13.8333 15.7305H9.16667C8.52234 15.7305 8 15.2828 8 14.7305Z" stroke="#101010" stroke-width="1.5"/>
<path d="M7 24.7305V28.7305" stroke="#8B62F1" stroke-width="1.5" stroke-linecap="round" stroke-linejoin="round"/>
<path d="M16 24.7305V28.7305" stroke="#8B62F1" stroke-width="1.5" stroke-linecap="round" stroke-linejoin="round"/>
<path d="M11.4 24.7305V28.7305" stroke="#8B62F1" stroke-width="1.5" stroke-linecap="round" stroke-linejoin="round"/>
</svg>
