<svg width="25" height="24" viewBox="0 0 25 24" fill="none" xmlns="http://www.w3.org/2000/svg">
<path opacity="0.5" d="M14.4638 5.41125H8.01376C7.40101 5.41125 6.90376 4.914 6.90376 4.30125V2.61C6.90376 1.99725 7.40101 1.5 8.01376 1.5H14.4638C15.0765 1.5 15.5738 1.99725 15.5738 2.61V4.30125C15.5738 4.91475 15.0765 5.41125 14.4638 5.41125Z" fill="#D4D1DD"/>
<path d="M21.9225 13.4925C21.2325 12.8025 20.1075 12.8025 19.4175 13.4925L18.5985 14.316L21.105 16.8217L21.9225 16.0042C22.62 15.3075 22.62 14.19 21.9225 13.4925Z" fill="#999999"/>
<path d="M17.805 15.1125L13.4325 19.4775C13.3425 19.575 13.2825 19.695 13.26 19.8225L12.93 21.765C12.855 22.1925 13.23 22.56 13.6575 22.4925L15.6 22.1625C15.7275 22.14 15.8475 22.08 15.9375 21.99L20.31 17.6175L17.805 15.1125Z" fill="#999999"/>
<path opacity="0.5" d="M17.6325 3.45752H16.6988V4.30127C16.6988 5.53352 15.696 6.53627 14.4638 6.53627H8.01376C6.78076 6.53627 5.77876 5.53352 5.77876 4.30127V3.45752H4.83001C3.35251 3.45752 2.15251 4.65752 2.15251 6.13502V19.8225C2.15251 21.3 3.35251 22.5 4.83001 22.5H11.9228C11.8088 22.2068 11.766 21.8888 11.8215 21.5715L12.1508 19.6343C12.2093 19.2908 12.3668 18.9735 12.6038 18.7148L17.3775 13.9478L18.6188 12.6998C19.08 12.2378 19.6718 11.964 20.3085 11.8853V6.14252C20.31 4.65002 19.1175 3.45752 17.6325 3.45752ZM10.071 14.5823H6.81676C6.44401 14.5823 6.14176 14.28 6.14176 13.9073C6.14176 13.5345 6.44401 13.2323 6.81676 13.2323H10.071C10.4438 13.2323 10.746 13.5345 10.746 13.9073C10.746 14.28 10.4438 14.5823 10.071 14.5823ZM14.055 10.7513H6.81751C6.44476 10.7513 6.14251 10.449 6.14251 10.0763C6.14251 9.70352 6.44476 9.40127 6.81751 9.40127H14.055C14.4278 9.40127 14.73 9.70352 14.73 10.0763C14.73 10.449 14.4278 10.7513 14.055 10.7513Z" fill="#D4D1DD"/>
</svg>
