<?xml version="1.0" standalone="no"?>
<!DOCTYPE svg PUBLIC "-//W3C//DTD SVG 20010904//EN"
 "http://www.w3.org/TR/2001/REC-SVG-20010904/DTD/svg10.dtd">
<svg version="1.0" xmlns="http://www.w3.org/2000/svg"
 width="512.000000pt" height="512.000000pt" viewBox="0 0 512.000000 512.000000"
 preserveAspectRatio="xMidYMid meet">

<g transform="translate(0.000000,512.000000) scale(0.100000,-0.100000)"
fill="#000000" stroke="none">
<path d="M3453 3660 c-46 -20 -79 -64 -89 -117 -13 -68 8 -98 214 -305 l196
-198 -1116 -2 c-1110 -3 -1117 -3 -1144 -24 -53 -39 -69 -71 -69 -134 0 -63
16 -95 69 -134 27 -21 32 -21 1344 -24 905 -2 1328 0 1354 8 45 13 95 68 104
115 16 87 19 83 -349 454 -399 400 -410 409 -514 361z"/>
<path d="M895 2386 c-67 -29 -105 -105 -90 -183 5 -33 51 -83 358 -390 301
-301 358 -353 395 -364 116 -34 227 77 193 194 -11 34 -48 77 -209 239 l-196
198 1116 2 c1110 3 1117 3 1144 24 53 39 69 71 69 134 0 63 -16 95 -69 134
-27 21 -31 21 -1354 23 -1088 2 -1332 0 -1357 -11z"/>
</g>
</svg>
