<svg width="25" height="24" viewBox="0 0 25 24" fill="none" xmlns="http://www.w3.org/2000/svg">
<path d="M4.81802 20.5355C6.13604 22 8.25736 22 12.5 22C16.7426 22 18.864 22 20.182 20.5355C21.5 19.0711 21.5 16.714 21.5 12C21.5 7.28595 21.5 4.92893 20.182 3.46447C18.864 2 16.7426 2 12.5 2C8.25736 2 6.13604 2 4.81802 3.46447C3.5 4.92893 3.5 7.28595 3.5 12C3.5 16.714 3.5 19.0711 4.81802 20.5355Z" stroke="#8B62F1" stroke-width="1.6"/>
<path d="M7.5 8C7.5 7.53501 7.5 7.30252 7.55111 7.11177C7.68981 6.59413 8.09413 6.18981 8.61177 6.05111C8.80252 6 9.03501 6 9.5 6H15.5C15.965 6 16.1975 6 16.3882 6.05111C16.9059 6.18981 17.3102 6.59413 17.4489 7.11177C17.5 7.30252 17.5 7.53501 17.5 8C17.5 8.46499 17.5 8.69748 17.4489 8.88823C17.3102 9.40587 16.9059 9.81019 16.3882 9.94889C16.1975 10 15.965 10 15.5 10H9.5C9.03501 10 8.80252 10 8.61177 9.94889C8.09413 9.81019 7.68981 9.40587 7.55111 8.88823C7.5 8.69748 7.5 8.46499 7.5 8Z" stroke="white" stroke-width="1.6"/>
<path d="M8.5 14C9.05228 14 9.5 13.5523 9.5 13C9.5 12.4477 9.05228 12 8.5 12C7.94772 12 7.5 12.4477 7.5 13C7.5 13.5523 7.94772 14 8.5 14Z" fill="white" stroke="#8B62F1" stroke-width="33.3333"/>
<path d="M8.5 18C9.05228 18 9.5 17.5523 9.5 17C9.5 16.4477 9.05228 16 8.5 16C7.94772 16 7.5 16.4477 7.5 17C7.5 17.5523 7.94772 18 8.5 18Z" fill="white" stroke="#8B62F1" stroke-width="33.3333"/>
<path d="M12.5 14C13.0523 14 13.5 13.5523 13.5 13C13.5 12.4477 13.0523 12 12.5 12C11.9477 12 11.5 12.4477 11.5 13C11.5 13.5523 11.9477 14 12.5 14Z" fill="white" stroke="#8B62F1" stroke-width="33.3333"/>
<path d="M12.5 18C13.0523 18 13.5 17.5523 13.5 17C13.5 16.4477 13.0523 16 12.5 16C11.9477 16 11.5 16.4477 11.5 17C11.5 17.5523 11.9477 18 12.5 18Z" fill="white" stroke="#8B62F1" stroke-width="33.3333"/>
<path d="M16.5 14C17.0523 14 17.5 13.5523 17.5 13C17.5 12.4477 17.0523 12 16.5 12C15.9477 12 15.5 12.4477 15.5 13C15.5 13.5523 15.9477 14 16.5 14Z" fill="white" stroke="#8B62F1" stroke-width="33.3333"/>
<path d="M16.5 18C17.0523 18 17.5 17.5523 17.5 17C17.5 16.4477 17.0523 16 16.5 16C15.9477 16 15.5 16.4477 15.5 17C15.5 17.5523 15.9477 18 16.5 18Z" fill="white" stroke="#8B62F1" stroke-width="33.3333"/>
</svg>
