<svg width="24" height="24" viewBox="0 0 24 24" fill="none" xmlns="http://www.w3.org/2000/svg">
<path d="M13.0869 8.55381C12.5579 8.33011 12.558 8.2477 12.558 8.17504C12.558 8.10601 12.5967 7.99027 12.8559 7.99027C13.1793 7.99027 13.5121 8.16704 13.7677 8.34934L14.149 7.32011C13.8999 7.15596 13.6001 7.00704 13.307 6.95216V6.33447H12.2868V7.01729C11.7368 7.20924 11.3967 7.67765 11.3967 8.24734C11.3967 9.02278 11.9918 9.36596 12.5734 9.59924C13.0357 9.79068 13.0357 9.92637 13.0357 10.0074C13.0357 10.1635 12.8888 10.2644 12.6614 10.2644C12.2916 10.2644 11.9205 10.0496 11.647 9.81909L11.2798 10.866C11.5572 11.0951 11.8905 11.2505 12.2454 11.3111V11.9504H13.2713V11.2488C13.8383 11.049 14.2028 10.5487 14.2028 9.96519C14.2028 9.12647 13.6065 8.77037 13.0869 8.55381C13.6065 8.77037 12.5579 8.33011 13.0869 8.55381Z" fill="#8B62F1"/>
<path d="M17.9472 3.87L13.2805 0.727489C11.877 -0.217691 10.0462 -0.243896 8.61641 0.660771C7.44482 1.40195 6.09708 1.87728 4.7179 2.03605C4.65036 1.65087 4.31503 1.35785 3.91056 1.35785H0.820513C0.367385 1.35785 0 1.72523 0 2.17841V8.44857C0 8.9018 0.367385 9.26913 0.820513 9.26913C0.820513 9.26913 3.96764 9.26759 3.99564 9.26472L7.90318 10.1387C8.10733 11.1484 8.61826 12.0717 9.37938 12.7852C10.3012 13.6493 11.5039 14.1253 12.766 14.1253C15.5035 14.1253 17.7307 11.89 17.7307 9.14231C17.7307 8.91508 17.7152 8.69144 17.6857 8.47226C18.5961 8.00062 19.1604 7.03308 19.1282 6.00975C19.1311 6.10185 19.2821 4.70067 17.9472 3.87ZM1.64103 2.99903H3.09005V7.62805H1.64103V2.99903ZM12.766 12.4842C11.3011 12.4842 10.0336 11.5109 9.60174 10.1605C10.353 9.90826 10.9624 9.29303 11.1796 8.46698C11.36 7.78082 11.2213 7.01975 10.8149 6.43928C11.3775 6.02816 12.0581 5.80051 12.766 5.80051C14.5987 5.80051 16.0897 7.29969 16.0897 9.14241C16.0897 10.9851 14.5987 12.4842 12.766 12.4842ZM12.766 4.15939C11.5135 4.15939 10.3181 4.63334 9.40615 5.4758C8.49051 5.24975 7.56692 5.05267 6.64769 4.84169C6.20574 4.74021 5.7658 5.01621 5.66441 5.4579C5.56303 5.89959 5.83892 6.33985 6.28062 6.44123L9.0021 7.0659C9.43687 7.16569 9.70544 7.62 9.59246 8.04969C9.48313 8.46559 9.07123 8.71831 8.65421 8.62513L4.73103 7.74759V3.68169C6.40805 3.54159 8.07492 2.94523 9.49369 2.04769C10.3735 1.49092 11.5002 1.50708 12.3638 2.08877L17.0306 5.23128C17.3105 5.41985 17.4772 5.72236 17.4879 6.06134C17.4974 6.3618 17.3825 6.64128 17.1702 6.84441C16.3412 5.25026 14.6783 4.15939 12.766 4.15939Z" fill="#8B62F1"/>
<path d="M23.1852 14.7358L20.0933 14.7142C19.8075 14.7142 19.5404 14.8615 19.3908 15.1032C18.827 14.6234 18.1138 14.1936 17.2857 14.0669C16.2495 13.9083 15.25 14.233 14.3128 15.0319L11.8471 15.9706C11.3637 16.1271 10.9966 16.5365 10.8366 17.1C10.7162 17.524 10.7249 17.9896 10.8451 18.4179L8.88696 18.2929C7.60958 18.1103 6.31348 18.483 5.32502 19.3185C4.18948 20.2783 4.72317 22.3337 6.21404 22.5944L13.9826 23.9489C14.586 24.054 15.2285 23.9962 15.8035 23.7847C15.8081 23.783 19.3114 22.4223 19.3114 22.4223C19.4233 22.7516 19.7444 22.9873 20.0939 22.9791L23.1858 22.9548C23.6364 22.9513 23.9999 22.585 23.9999 22.1343L24 15.5564C24 15.1054 23.6361 14.7389 23.1852 14.7358ZM15.2307 22.2468C14.922 22.359 14.588 22.3886 14.2645 22.3321L6.59686 20.9953C6.33686 20.8985 6.26599 20.7573 6.3843 20.572C7.02091 20.0339 7.85707 19.7967 8.67814 19.921C8.70158 19.9245 12.4191 20.1627 12.4191 20.1627C12.656 20.2426 12.9168 20.2582 13.1937 20.1564L15.7753 19.207L15.2089 17.6667L12.8516 18.5336C12.7885 18.4784 12.6938 18.386 12.555 18.2316C12.3637 18.019 12.3685 17.6433 12.4284 17.5053L15.0343 16.5132C15.129 16.4772 15.2162 16.424 15.2915 16.3561C15.8866 15.8201 16.4563 15.6019 17.0331 15.6885C18.0085 15.8352 18.8838 16.841 19.267 17.3961L19.267 20.679L15.2307 22.2468ZM22.3589 21.3202L20.908 21.3316L20.9081 16.3611L22.359 16.3712L22.3589 21.3202Z" fill="white"/>
</svg>
