<svg width="21" height="24" viewBox="0 0 21 24" fill="none" xmlns="http://www.w3.org/2000/svg">
<path d="M8.25 11.25H12.75V14.085C12.75 14.3277 12.6536 14.5604 12.482 14.732C12.3104 14.9036 12.0777 15 11.835 15H9.165C8.92233 15 8.68959 14.9036 8.518 14.732C8.3464 14.5604 8.25 14.3277 8.25 14.085V11.25Z" fill="#8B62F1"/>
<path d="M20.7825 7.71745C20.7128 7.64716 20.6298 7.59136 20.5384 7.55329C20.4471 7.51521 20.349 7.49561 20.25 7.49561C20.151 7.49561 20.053 7.51521 19.9616 7.55329C19.8702 7.59136 19.7872 7.64716 19.7175 7.71745L16.9425 10.5H4.05752L1.28252 7.71745C1.14129 7.57623 0.949743 7.49689 0.750017 7.49689C0.550291 7.49689 0.358745 7.57623 0.217517 7.71745C0.0762891 7.85868 -0.00305176 8.05023 -0.00305176 8.24995C-0.00305176 8.44968 0.0762892 8.64123 0.217517 8.78245L3.00002 11.5575V21.75C3.00002 22.3467 3.23707 22.919 3.65903 23.3409C4.08098 23.7629 4.65328 24 5.25002 24H15.75C16.3468 24 16.9191 23.7629 17.341 23.3409C17.763 22.919 18 22.3467 18 21.75V11.5575L20.7825 8.78245C20.8528 8.71273 20.9086 8.62978 20.9467 8.53839C20.9848 8.44699 21.0044 8.34896 21.0044 8.24995C21.0044 8.15095 20.9848 8.05292 20.9467 7.96152C20.9086 7.87013 20.8528 7.78718 20.7825 7.71745ZM16.5 21.75C16.5 21.9489 16.421 22.1396 16.2803 22.2803C16.1397 22.4209 15.9489 22.5 15.75 22.5H5.25002C5.0511 22.5 4.86034 22.4209 4.71969 22.2803C4.57903 22.1396 4.50002 21.9489 4.50002 21.75V12H16.5V21.75Z" fill="white"/>
<path d="M8.25 21H6.75C6.55109 21 6.36032 20.921 6.21967 20.7803C6.07902 20.6397 6 20.4489 6 20.25C6 20.0511 6.07902 19.8603 6.21967 19.7197C6.36032 19.579 6.55109 19.5 6.75 19.5H8.25C8.44891 19.5 8.63968 19.579 8.78033 19.7197C8.92098 19.8603 9 20.0511 9 20.25C9 20.4489 8.92098 20.6397 8.78033 20.7803C8.63968 20.921 8.44891 21 8.25 21Z" fill="#8B62F1"/>
<path d="M10.5 6.74989C10.4013 6.75047 10.3035 6.73155 10.2121 6.69422C10.1207 6.6569 10.0376 6.60191 9.96752 6.53239L7.71752 4.28239C7.57629 4.14117 7.49695 3.94962 7.49695 3.7499C7.49695 3.55017 7.57629 3.35862 7.71752 3.21739C7.85874 3.07617 8.05029 2.99683 8.25002 2.99683C8.44974 2.99683 8.64129 3.07617 8.78252 3.21739L10.5 4.9424L14.4675 0.967395C14.6087 0.826167 14.8003 0.746826 15 0.746826C15.1997 0.746826 15.3913 0.826167 15.5325 0.967395C15.6737 1.10862 15.7531 1.30017 15.7531 1.49989C15.7531 1.69962 15.6737 1.89117 15.5325 2.03239L11.0325 6.53239C10.9624 6.60191 10.8793 6.6569 10.7879 6.69422C10.6966 6.73155 10.5987 6.75047 10.5 6.74989Z" fill="white"/>
</svg>
