<svg width="25" height="24" viewBox="0 0 25 24" fill="none" xmlns="http://www.w3.org/2000/svg">
<path d="M17.75 22.5C19.8176 22.5 21.5 20.8176 21.5 18.75V5.25C21.5 3.18237 19.8176 1.5 17.75 1.5H7.25C5.18237 1.5 3.5 3.18237 3.5 5.25V18.75C3.5 20.8176 5.18237 22.5 7.25 22.5H17.75ZM5 5.25C5 4.00928 6.00928 3 7.25 3H17.75C18.9907 3 20 4.00928 20 5.25V18.75C20 19.9907 18.9907 21 17.75 21H7.25C6.00928 21 5 19.9907 5 18.75V5.25Z" fill="white"/>
<path d="M11 12.75H17C17.4146 12.75 17.75 12.4142 17.75 12C17.75 11.5858 17.4146 11.25 17 11.25H11C10.5854 11.25 10.25 11.5858 10.25 12C10.25 12.4142 10.5854 12.75 11 12.75Z" fill="#8B62F1"/>
<path d="M11 9H17C17.4146 9 17.75 8.66418 17.75 8.25C17.75 7.83582 17.4146 7.5 17 7.5H11C10.5854 7.5 10.25 7.83582 10.25 8.25C10.25 8.66418 10.5854 9 11 9Z" fill="#8B62F1"/>
<path d="M11 16.5H17C17.4146 16.5 17.75 16.1642 17.75 15.75C17.75 15.3358 17.4146 15 17 15H11C10.5854 15 10.25 15.3358 10.25 15.75C10.25 16.1642 10.5854 16.5 11 16.5Z" fill="#8B62F1"/>
<path d="M8.01465 9C8.4292 9 8.76465 8.66418 8.76465 8.25C8.76465 7.83582 8.4292 7.5 8.01465 7.5H8.00732C7.59351 7.5 7.26099 7.83582 7.26099 8.25C7.26099 8.66418 7.60083 9 8.01465 9Z" fill="#8B62F1"/>
<path d="M8.01465 12.75C8.4292 12.75 8.76465 12.4142 8.76465 12C8.76465 11.5858 8.4292 11.25 8.01465 11.25H8.00732C7.59351 11.25 7.26099 11.5858 7.26099 12C7.26099 12.4142 7.60083 12.75 8.01465 12.75Z" fill="#8B62F1"/>
<path d="M8.01465 16.5C8.4292 16.5 8.76465 16.1642 8.76465 15.75C8.76465 15.3358 8.4292 15 8.01465 15H8.00732C7.59351 15 7.26099 15.3358 7.26099 15.75C7.26099 16.1642 7.60083 16.5 8.01465 16.5Z" fill="#8B62F1"/>
</svg>
