<svg width="25" height="24" viewBox="0 0 25 24" fill="none" xmlns="http://www.w3.org/2000/svg">
<path d="M15.75 2H9.25C7.45507 2 6 3.49238 6 5.33333V18.6667C6 20.5076 7.45507 22 9.25 22H15.75C17.5449 22 19 20.5076 19 18.6667V5.33333C19 3.49238 17.5449 2 15.75 2Z" stroke="white" stroke-width="1.6" stroke-linecap="round" stroke-linejoin="round"/>
<path d="M12 20C11.7348 20 11.4804 19.8946 11.2929 19.7071C11.1054 19.5196 11 19.2652 11 19C11 18.8022 11.0586 18.6089 11.1685 18.4444C11.2784 18.28 11.4346 18.1518 11.6173 18.0761C11.8 18.0004 12.0011 17.9806 12.1951 18.0192C12.3891 18.0578 12.5673 18.153 12.7071 18.2929C12.847 18.4327 12.9422 18.6109 12.9808 18.8049C13.0194 18.9989 12.9996 19.2 12.9239 19.3827C12.8482 19.5654 12.72 19.7216 12.5556 19.8315C12.3911 19.9414 12.1978 20 12 20Z" fill="#8B62F1"/>
</svg>
