<svg width="25" height="24" viewBox="0 0 25 24" fill="none" xmlns="http://www.w3.org/2000/svg">
<path opacity="0.5" fill-rule="evenodd" clip-rule="evenodd" d="M14.3788 2.15224C14.0085 2 13.539 2 12.6 2C11.661 2 11.1915 2 10.8212 2.15224C10.3274 2.35523 9.93506 2.74458 9.73053 3.23463C9.63716 3.45834 9.60062 3.7185 9.58632 4.09799C9.56531 4.65568 9.27713 5.17189 8.79014 5.45093C8.30315 5.72996 7.70861 5.71954 7.21146 5.45876C6.87315 5.2813 6.62786 5.18262 6.38596 5.15102C5.85606 5.08178 5.32015 5.22429 4.89613 5.5472C4.57811 5.78938 4.34336 6.1929 3.87387 6.99993C3.40438 7.80697 3.16964 8.21048 3.11732 8.60491C3.04755 9.1308 3.19115 9.66266 3.51652 10.0835C3.66503 10.2756 3.87374 10.437 4.19767 10.639C4.67388 10.936 4.98029 11.4419 4.98026 12C4.98023 12.5581 4.67383 13.0639 4.19767 13.3608C3.87369 13.5629 3.66494 13.7244 3.51642 13.9165C3.19105 14.3373 3.04746 14.8691 3.11722 15.395C3.16954 15.7894 3.40429 16.193 3.87377 17C4.34326 17.807 4.57801 18.2106 4.89603 18.4527C5.32005 18.7756 5.85596 18.9181 6.38586 18.8489C6.62775 18.8173 6.87302 18.7186 7.2113 18.5412C7.70849 18.2804 8.30307 18.27 8.79009 18.549C9.27711 18.8281 9.5653 19.3443 9.58632 19.9021C9.60062 20.2815 9.63716 20.5417 9.73053 20.7654C9.93506 21.2554 10.3274 21.6448 10.8212 21.8478C11.1915 22 11.661 22 12.6 22C13.539 22 14.0085 22 14.3788 21.8478C14.8726 21.6448 15.2649 21.2554 15.4694 20.7654C15.5628 20.5417 15.5994 20.2815 15.6137 19.902C15.6347 19.3443 15.9228 18.8281 16.4098 18.549C16.8968 18.2699 17.4914 18.2804 17.9886 18.5412C18.3269 18.7186 18.5721 18.8172 18.814 18.8488C19.3439 18.9181 19.8798 18.7756 20.3038 18.4527C20.6219 18.2105 20.8566 17.807 21.3261 16.9999C21.7956 16.1929 22.0303 15.7894 22.0827 15.395C22.1524 14.8691 22.0088 14.3372 21.6835 13.9164C21.5349 13.7243 21.3262 13.5628 21.0022 13.3608C20.5261 13.0639 20.2197 12.558 20.2197 11.9999C20.2197 11.4418 20.5261 10.9361 21.0022 10.6392C21.3263 10.4371 21.535 10.2757 21.6836 10.0835C22.0089 9.66273 22.1525 9.13087 22.0828 8.60497C22.0304 8.21055 21.7957 7.80703 21.3262 7C20.8567 6.19297 20.622 5.78945 20.3039 5.54727C19.8799 5.22436 19.344 5.08185 18.8141 5.15109C18.5722 5.18269 18.3269 5.28136 17.9887 5.4588C17.4915 5.71959 16.8969 5.73002 16.4099 5.45096C15.9229 5.17191 15.6347 4.65566 15.6136 4.09794C15.5993 3.71848 15.5628 3.45833 15.4694 3.23463C15.2649 2.74458 14.8726 2.35523 14.3788 2.15224Z" fill="#E2D7FF"/>
<path d="M15.6227 12C15.6227 13.6569 14.2694 15 12.5999 15C10.9304 15 9.57703 13.6569 9.57703 12C9.57703 10.3431 10.9304 9 12.5999 9C14.2694 9 15.6227 10.3431 15.6227 12Z" fill="url(#paint0_linear_163_5164)"/>
<defs>
<linearGradient id="paint0_linear_163_5164" x1="12.5999" y1="9" x2="12.5999" y2="15" gradientUnits="userSpaceOnUse">
<stop stop-color="#8B62F1"/>
<stop offset="1" stop-color="#50388B"/>
</linearGradient>
</defs>
</svg>
