<svg width="25" height="24" viewBox="0 0 25 24" fill="none" xmlns="http://www.w3.org/2000/svg">
<path d="M19.5 13V20C19.5 20.2652 19.3946 20.5196 19.2071 20.7071C19.0196 20.8946 18.7652 21 18.5 21H6.5C6.23478 21 5.98043 20.8946 5.79289 20.7071C5.60536 20.5196 5.5 20.2652 5.5 20V13" stroke="#8B62F1" stroke-width="1.6" stroke-linecap="round" stroke-linejoin="round"/>
<path d="M12.5 2.99995H18.75C18.9744 2.99165 19.1952 3.05915 19.3766 3.19158C19.558 3.32401 19.6895 3.51365 19.75 3.72995L21.33 9.27995C21.4562 9.75939 21.5134 10.2544 21.5 10.75C21.5 11.3467 21.2629 11.919 20.841 12.3409C20.419 12.7629 19.8467 13 19.25 13C18.6533 13 18.081 12.7629 17.659 12.3409C17.2371 11.919 17 11.3467 17 10.75C17 11.3467 16.7629 11.919 16.341 12.3409C15.919 12.7629 15.3467 13 14.75 13C14.1533 13 13.581 12.7629 13.159 12.3409C12.7371 11.919 12.5 11.3467 12.5 10.75" stroke="white" stroke-width="1.6" stroke-linecap="round" stroke-linejoin="round"/>
<path d="M12.5 2.99995H6.25C6.02555 2.99165 5.80485 3.05915 5.62344 3.19158C5.44204 3.32401 5.31049 3.51365 5.25 3.72995L3.71 9.27995C3.57031 9.75744 3.49959 10.2524 3.5 10.75C3.5 11.3467 3.73705 11.919 4.15901 12.3409C4.58097 12.7629 5.15326 13 5.75 13C6.34674 13 6.91903 12.7629 7.34099 12.3409C7.76295 11.919 8 11.3467 8 10.75C8 11.3467 8.23706 11.919 8.65901 12.3409C9.08097 12.7629 9.65326 13 10.25 13C10.8467 13 11.419 12.7629 11.841 12.3409C12.2629 11.919 12.5 11.3467 12.5 10.75" stroke="white" stroke-width="1.6" stroke-linecap="round" stroke-linejoin="round"/>
</svg>
