<svg width="24" height="24" viewBox="0 0 24 24" fill="none" xmlns="http://www.w3.org/2000/svg">
<g clip-path="url(#clip0_258_973)">
<path d="M24 12.5999C24.0406 12.8069 24.0003 13.0216 23.8875 13.1999L18 20.9999C17.6507 21.4656 17.1978 21.8436 16.6771 22.104C16.1563 22.3643 15.5822 22.4999 15 22.4999H8.745C8.14847 22.5004 7.57655 22.7378 7.155 23.1599L6.5325 23.7824C6.46278 23.8527 6.37983 23.9085 6.28843 23.9466C6.19704 23.9846 6.09901 24.0042 6 24.0042C5.90099 24.0042 5.80296 23.9846 5.71157 23.9466C5.62017 23.9085 5.53722 23.8527 5.4675 23.7824C5.39721 23.7127 5.34141 23.6297 5.30333 23.5383C5.26526 23.4469 5.24565 23.3489 5.24565 23.2499C5.24565 23.1509 5.26526 23.0529 5.30333 22.9615C5.34141 22.8701 5.39721 22.7871 5.4675 22.7174L6.09 22.0949C6.43889 21.7469 6.85296 21.471 7.30852 21.2832C7.76409 21.0953 8.25221 20.999 8.745 20.9999H15C15.3493 20.9999 15.6938 20.9186 16.0062 20.7624C16.3187 20.6061 16.5904 20.3793 16.8 20.0999L22.1025 13.0349C21.7003 12.931 21.2772 12.9405 20.8801 13.0623C20.483 13.1841 20.1273 13.4134 19.8525 13.7249L16.41 17.6474C16.3405 17.7588 16.2429 17.85 16.1271 17.9118C16.0113 17.9737 15.8812 18.0041 15.75 17.9999H9.75C9.55109 17.9999 9.36032 17.9209 9.21967 17.7802C9.07902 17.6396 9 17.4488 9 17.2499C9 17.051 9.07902 16.8602 9.21967 16.7196C9.36032 16.5789 9.55109 16.4999 9.75 16.4999H15C15 16.1021 14.842 15.7205 14.5607 15.4392C14.2794 15.1579 13.8978 14.9999 13.5 14.9999H12.8025C12.1299 15.0016 11.472 14.8032 10.9125 14.4299C9.85096 13.7201 8.57591 13.4008 7.30514 13.5267C6.03437 13.6525 4.8467 14.2157 3.945 15.1199L1.2825 17.7824C1.14127 17.9236 0.949728 18.003 0.750002 18.003C0.550275 18.003 0.358729 17.9236 0.217502 17.7824C0.0762739 17.6412 -0.00306702 17.4496 -0.00306702 17.2499C-0.00306702 17.0502 0.0762739 16.8586 0.217502 16.7174L2.88 14.0549C4.02941 12.9081 5.54013 12.1941 7.15591 12.0342C8.7717 11.8743 10.3931 12.2782 11.745 13.1774C12.0579 13.3871 12.4259 13.4993 12.8025 13.4999H13.5C14.114 13.5032 14.7122 13.6949 15.2138 14.0489C15.7154 14.403 16.0963 14.9025 16.305 15.4799L18.705 12.7499C19.3037 12.0662 20.1303 11.6231 21.0311 11.5031C21.9319 11.3831 22.8457 11.5942 23.6025 12.0974C23.7941 12.2082 23.9363 12.3879 24 12.5999Z" fill="white"/>
<path d="M12 0.75H15V3C15 3.19891 14.921 3.38968 14.7803 3.53033C14.6397 3.67098 14.4489 3.75 14.25 3.75H12.75C12.5511 3.75 12.3603 3.67098 12.2197 3.53033C12.079 3.38968 12 3.19891 12 3V0.75Z" fill="#8B62F1"/>
<path d="M16.5 10.5H10.5C9.90326 10.5 9.33097 10.2629 8.90901 9.84099C8.48705 9.41903 8.25 8.84674 8.25 8.25V2.25C8.25 1.65326 8.48705 1.08097 8.90901 0.65901C9.33097 0.237053 9.90326 0 10.5 0L16.5 0C17.0967 0 17.669 0.237053 18.091 0.65901C18.5129 1.08097 18.75 1.65326 18.75 2.25V8.25C18.75 8.84674 18.5129 9.41903 18.091 9.84099C17.669 10.2629 17.0967 10.5 16.5 10.5ZM10.5 1.5C10.3011 1.5 10.1103 1.57902 9.96967 1.71967C9.82902 1.86032 9.75 2.05109 9.75 2.25V8.25C9.75 8.44891 9.82902 8.63968 9.96967 8.78033C10.1103 8.92098 10.3011 9 10.5 9H16.5C16.6989 9 16.8897 8.92098 17.0303 8.78033C17.171 8.63968 17.25 8.44891 17.25 8.25V2.25C17.25 2.05109 17.171 1.86032 17.0303 1.71967C16.8897 1.57902 16.6989 1.5 16.5 1.5H10.5Z" fill="#8B62F1"/>
</g>
<defs>
<clipPath id="clip0_258_973">
<rect width="24" height="24" fill="white"/>
</clipPath>
</defs>
</svg>
