<svg width="25" height="24" viewBox="0 0 25 24" fill="none" xmlns="http://www.w3.org/2000/svg">
<path d="M8.12598 18H20.7C20.6965 18.9296 20.6784 19.6228 20.5866 20.1706C20.4773 20.8228 20.2774 21.1682 19.9709 21.4142C19.6643 21.6602 19.2339 21.8206 18.4211 21.9083C17.5844 21.9986 16.4754 22 14.8854 22H10.4546C8.8646 22 7.75566 21.9986 6.91896 21.9083C6.10616 21.8206 5.67573 21.6602 5.36916 21.4142C5.06259 21.1682 4.86271 20.8228 4.75343 20.1706C4.74522 20.1216 4.73761 20.0714 4.73053 20.02C4.69045 19.7288 4.67041 19.5831 4.79696 19.2397C4.92351 18.8964 4.97837 18.8425 5.08811 18.7347C5.41351 18.4151 5.85982 18.1785 6.37321 18.0681C6.66352 18.0057 7.04236 18 8.12598 18Z" fill="#999999"/>
<path opacity="0.5" d="M5.42718 2.73332C5.73258 2.42535 6.16135 2.22456 6.97103 2.11478C7.80452 2.00177 8.9092 2 10.4931 2H14.9069C16.4908 2 17.5955 2.00177 18.429 2.11478C19.2387 2.22456 19.6674 2.42535 19.9728 2.73332C20.2782 3.0413 20.4773 3.47368 20.5862 4.2902C20.6982 5.13073 20.7 6.24474 20.7 7.84202V18H8.12598C7.04236 18 6.66352 18.0057 6.37321 18.0681C5.85982 18.1785 5.41351 18.4151 5.08811 18.7347C4.97837 18.8425 4.92351 18.8964 4.79696 19.2397C4.72435 19.4367 4.7 19.5687 4.7 19.7003V7.84202C4.7 6.24474 4.70176 5.13073 4.81382 4.2902C4.92268 3.47368 5.12179 3.0413 5.42718 2.73332Z" fill="#D4D1DD"/>
<path d="M7.95 7C7.95 6.58579 8.28579 6.25 8.7 6.25H16.7C17.1142 6.25 17.45 6.58579 17.45 7C17.45 7.41421 17.1142 7.75 16.7 7.75H8.7C8.28579 7.75 7.95 7.41421 7.95 7Z" fill="#999999"/>
<path d="M8.7 9.75C8.28579 9.75 7.95 10.0858 7.95 10.5C7.95 10.9142 8.28579 11.25 8.7 11.25H13.7C14.1142 11.25 14.45 10.9142 14.45 10.5C14.45 10.0858 14.1142 9.75 13.7 9.75H8.7Z" fill="#999999"/>
</svg>
