<svg width="25" height="24" viewBox="0 0 25 24" fill="none" xmlns="http://www.w3.org/2000/svg">
<path d="M22.5702 6.9499C21.9302 4.7799 20.1202 2.9699 17.9502 2.3299C16.3002 1.8499 15.1602 1.8899 14.3702 2.4799C13.4202 3.1899 13.3102 4.4699 13.3102 5.3799V7.8699C13.3102 10.3299 14.4302 11.5799 16.6302 11.5799H19.5002C20.4002 11.5799 21.6902 11.4699 22.4002 10.5199C23.0102 9.7399 23.0602 8.5999 22.5702 6.9499Z" fill="#999999"/>
<path opacity="0.5" d="M19.8094 13.3597C19.5494 13.0597 19.1694 12.8897 18.7794 12.8897H15.1994C13.4394 12.8897 12.0094 11.4597 12.0094 9.69966V6.11966C12.0094 5.72966 11.8394 5.34966 11.5394 5.08966C11.2494 4.82966 10.8494 4.70966 10.4694 4.75966C8.11941 5.05966 5.95941 6.34966 4.54941 8.28966C3.12941 10.2397 2.60941 12.6197 3.05941 14.9997C3.70941 18.4397 6.45941 21.1897 9.90941 21.8397C10.4594 21.9497 11.0094 21.9997 11.5594 21.9997C13.3694 21.9997 15.1194 21.4397 16.6094 20.3497C18.5494 18.9397 19.8394 16.7797 20.1394 14.4297C20.1894 14.0397 20.0694 13.6497 19.8094 13.3597Z" fill="#D4D1DD"/>
</svg>
