<svg width="25" height="24" viewBox="0 0 25 24" fill="none" xmlns="http://www.w3.org/2000/svg">
<g clip-path="url(#clip0_203_491)">
<path d="M14.4976 13.3593C15.6127 13.3593 16.5495 12.6456 16.725 11.6623C16.8576 10.92 16.5235 9.95143 15.1887 9.45905C14.5654 9.22913 13.9845 8.97901 13.7957 8.89646C13.6844 8.80229 13.6885 8.67375 13.6963 8.61957C13.7078 8.53969 13.7666 8.34418 14.0653 8.25422C14.7676 8.04277 15.4243 8.56665 15.4308 8.57194L15.4264 8.56829L15.4266 8.56805C15.5489 8.67094 15.7065 8.73315 15.8788 8.73315C16.2671 8.73315 16.582 8.41833 16.582 8.03002C16.582 7.81402 16.4844 7.62099 16.3311 7.49199L16.3313 7.49175C16.3304 7.491 16.3283 7.48927 16.3266 7.48791C16.3263 7.48763 16.3259 7.48735 16.3256 7.48702C16.2277 7.40635 15.0661 6.48394 13.6598 6.90769C12.9259 7.12876 12.4065 7.70813 12.3044 8.41969C12.2083 9.08874 12.4984 9.73238 13.0614 10.0994C13.0925 10.1197 13.1251 10.1374 13.159 10.1525C13.1889 10.1659 13.9007 10.4827 14.7021 10.7783C14.8677 10.8394 15.4031 11.0658 15.3408 11.4151C15.2936 11.6795 14.9653 11.953 14.4977 11.953C14.0015 11.953 13.5246 11.7537 13.2219 11.4197C12.9612 11.1319 12.5165 11.1101 12.2287 11.3708C11.941 11.6316 11.9191 12.0763 12.1799 12.364C12.753 12.9966 13.5978 13.3593 14.4976 13.3593Z" fill="#8B62F1"/>
<path d="M24.3237 16.2157C23.917 15.0981 22.6859 14.5387 21.5899 14.9336C21.6232 14.7251 21.6406 14.5125 21.6406 14.2969V12.0376C21.6406 10.331 21.1663 8.66166 20.2691 7.20989C19.4836 5.93888 18.4038 4.8833 17.1228 4.128L18.3145 0.949969C18.4869 0.490313 18.1471 0 17.6562 0H11.0937C10.6028 0 10.263 0.490313 10.4353 0.950016L11.6271 4.12805C10.346 4.88339 9.26627 5.93897 8.48078 7.20994C7.58355 8.66166 7.10931 10.3311 7.10931 12.0377V13.0996C6.75663 13.1617 6.40736 13.2542 6.06574 13.3786L4.61899 13.9052L4.55355 13.7254C4.42075 13.3605 4.01725 13.1723 3.65233 13.3051L1.00947 14.2671C0.731689 14.3682 0.546814 14.6322 0.546814 14.9278V23.2969C0.546814 23.6852 0.861626 24 1.24994 24H4.29606C4.3781 24 4.45947 23.9857 4.53653 23.9576L7.17939 22.9957C7.46256 22.8926 7.63844 22.6265 7.64139 22.3419L13.6489 23.1675C14.3737 23.2672 15.1115 23.1382 15.7595 22.7985L23.3061 18.8434C24.2554 18.3459 24.6903 17.2229 24.3237 16.2157ZM16.6416 1.40625L15.7627 3.75H12.9872L12.1083 1.40625H16.6416ZM8.51556 12.0376C8.51556 9.12736 10.1029 6.50555 12.6696 5.15625H16.0803C18.647 6.50559 20.2343 9.12736 20.2343 12.0376V14.2969C20.2343 14.8316 20.0738 15.3382 19.7694 15.7719L17.2059 16.967C17.0824 16.0861 16.4065 15.3456 15.4832 15.1828L13.5695 14.8454C12.8933 14.7262 12.2626 14.4697 11.6951 14.083C10.7431 13.4344 9.63935 13.0731 8.51556 13.0142V12.0376ZM4.17208 22.5938H1.95306V15.42L3.47261 14.867L6.03775 21.9147L4.17208 22.5938ZM22.6533 17.5979L15.1067 21.553C14.7179 21.7568 14.2752 21.8342 13.8403 21.7744L7.14845 20.8547L5.09992 15.2265L6.54667 14.7C7.99816 14.1717 9.62678 14.3755 10.9033 15.2452C11.6366 15.7448 12.4514 16.0762 13.3253 16.2302L15.2389 16.5676C15.6213 16.635 15.8767 16.9997 15.8093 17.3822C15.7418 17.7646 15.3772 18.02 14.9947 17.9525L10.5233 17.1641C10.1409 17.0966 9.77617 17.352 9.70872 17.7344C9.64127 18.1168 9.89664 18.4815 10.279 18.549L14.7505 19.3374C15.4074 19.4532 16.0464 19.2512 16.511 18.8424L22.0023 16.2824C22.3926 16.1004 22.855 16.2919 23.0023 16.6966C23.128 17.0421 22.9788 17.4273 22.6533 17.5979Z" fill="#101010"/>
</g>
<defs>
<clipPath id="clip0_203_491">
<rect width="24" height="24" fill="white" transform="translate(0.5)"/>
</clipPath>
</defs>
</svg>
