<svg width="25" height="24" viewBox="0 0 25 24" fill="none" xmlns="http://www.w3.org/2000/svg">
<g clip-path="url(#clip0_209_788)">
<path d="M11.025 13.1821H13.975C16.534 13.1821 18.5741 11.097 18.5741 8.583C18.5741 7.76183 18.5741 5.39561 18.5741 4.59994C18.5741 2.06356 16.5109 0 13.975 0C10.3802 0 11.7759 0 11.025 0C8.48903 0 6.4259 2.06356 6.4259 4.59994C6.4259 5.43128 6.4259 7.64664 6.4259 8.583C6.4259 11.0941 8.46172 13.1821 11.025 13.1821ZM13.975 1.29236C15.6665 1.29236 17.2817 2.58722 17.2817 4.76881H15.7938C13.7506 4.76881 12.0342 3.28871 11.7219 1.29236H13.975ZM7.71826 4.59994C7.71826 3.02524 8.83969 1.65543 10.3928 1.3537C10.2418 2.88515 9.16252 4.16881 7.71826 4.60675V4.59994ZM7.71826 5.94021C9.1863 5.61548 10.4156 4.65112 11.105 3.36384C12.0452 4.98894 13.8011 6.06117 15.7938 6.06117H17.2817V8.583C17.2817 10.3949 15.8104 11.8897 13.975 11.8897H11.025C9.1838 11.8897 7.71826 10.3904 7.71826 8.583V5.94021Z" fill="#101010"/>
<path d="M15.1561 14.3592L15.1546 14.3587C13.5415 13.9219 11.4573 13.9219 9.84453 14.3589C5.79324 15.4532 2.96323 19.152 2.96323 23.3538C2.96323 23.7106 3.25254 23.9999 3.60941 23.9999C3.9947 23.9999 21.0053 23.9999 21.3906 23.9999C21.7474 23.9999 22.0367 23.7106 22.0367 23.3538C22.0367 19.1501 19.2074 15.4516 15.1561 14.3592ZM9.61311 21.8983L10.6383 22.7076H4.28161C4.54163 19.4857 6.72865 16.7076 9.81713 15.7144L10.6865 16.63L9.3916 21.2155C9.32061 21.4669 9.40797 21.7364 9.61311 21.8983ZM12.5 22.5305L10.7526 21.1513L12.0303 16.6273C12.0922 16.4079 12.034 16.172 11.877 16.0067L11.2963 15.3951C12.0788 15.3013 12.9211 15.3012 13.7036 15.3952L13.123 16.0067C12.966 16.172 12.9077 16.4078 12.9697 16.6273L14.2473 21.1513L12.5 22.5305ZM14.3617 22.7075L15.3868 21.8983C15.5919 21.7364 15.6793 21.4669 15.6083 21.2155L14.3133 16.63C14.9842 15.9235 14.7853 16.1329 15.1828 15.7142C18.2714 16.7059 20.4585 19.484 20.7183 22.7075H14.3617Z" fill="#8B62F1"/>
</g>
<defs>
<clipPath id="clip0_209_788">
<rect width="24" height="24" fill="white" transform="translate(0.5)"/>
</clipPath>
</defs>
</svg>
