<svg width="25" height="24" viewBox="0 0 25 24" fill="none" xmlns="http://www.w3.org/2000/svg">
<path d="M16.01 13.99C17.1146 13.99 18.01 13.0946 18.01 11.99C18.01 10.8854 17.1146 9.98999 16.01 9.98999M16.01 13.99C14.9054 13.99 14.01 13.0946 14.01 11.99C14.01 10.8854 14.9054 9.98999 16.01 9.98999M16.01 13.99V19.99M16.01 9.98999V3.98999M9.01001 15.99C7.90541 15.99 7.01001 16.8854 7.01001 17.99C7.01001 19.0946 7.90541 19.99 9.01001 19.99C10.1146 19.99 11.01 19.0946 11.01 17.99C11.01 16.8854 10.1146 15.99 9.01001 15.99ZM9.01001 15.99V3.98999" stroke="#101010" stroke-width="1.8" stroke-linecap="round"/>
</svg>
