<svg width="24" height="24" viewBox="0 0 24 24" fill="none" xmlns="http://www.w3.org/2000/svg">
<path d="M19 9L18.2896 6.1578C18.0157 5.06187 17.8787 4.51391 17.5978 4.10123C17.318 3.69025 16.9378 3.37346 16.5008 3.18711C16.0619 3 15.5413 3 14.5 3M4 9L4.7104 6.1578C4.98432 5.06187 5.12128 4.51391 5.40221 4.10123C5.68199 3.69025 6.06216 3.37346 6.49922 3.18711C6.93808 3 7.45872 3 8.5 3" stroke="#8B62F1" stroke-width="1.5"/>
<path d="M2.93359 16.0765C2.03028 12.3587 1.57863 10.4998 2.52709 9.24995C3.47555 8 5.33778 8 9.06224 8H13.9378C17.6622 8 19.5244 8 20.4729 9.24995C21.4214 10.4998 20.9697 12.3587 20.0665 16.0765C19.4919 18.4411 19.2046 19.6233 18.3478 20.3116C17.491 21 16.3066 21 13.9378 21H9.06224C6.69341 21 5.509 21 4.65219 20.3116C3.79538 19.6233 3.50812 18.4411 2.93359 16.0765Z" stroke="#101010" stroke-width="1.5"/>
<path d="M8 3C8 2.44772 8.52234 2 9.16667 2H13.8333C14.4777 2 15 2.44772 15 3C15 3.55228 14.4777 4 13.8333 4H9.16667C8.52234 4 8 3.55228 8 3Z" stroke="#101010" stroke-width="1.5"/>
<path d="M7 13V17" stroke="#8B62F1" stroke-width="1.5" stroke-linecap="round" stroke-linejoin="round"/>
<path d="M16 13V17" stroke="#8B62F1" stroke-width="1.5" stroke-linecap="round" stroke-linejoin="round"/>
<path d="M11.4 13V17" stroke="#8B62F1" stroke-width="1.5" stroke-linecap="round" stroke-linejoin="round"/>
</svg>
