<svg width="25" height="24" viewBox="0 0 25 24" fill="none" xmlns="http://www.w3.org/2000/svg">
<g clip-path="url(#clip0_189_224)">
<path d="M10.25 11.25H14.75V14.085C14.75 14.3277 14.6536 14.5604 14.482 14.732C14.3104 14.9036 14.0777 15 13.835 15H11.165C10.9223 15 10.6896 14.9036 10.518 14.732C10.3464 14.5604 10.25 14.3277 10.25 14.085V11.25Z" fill="#8B62F1"/>
<path d="M22.7825 7.71752C22.7128 7.64722 22.6298 7.59142 22.5384 7.55335C22.4471 7.51527 22.349 7.49567 22.25 7.49567C22.151 7.49567 22.053 7.51527 21.9616 7.55335C21.8702 7.59142 21.7872 7.64722 21.7175 7.71752L18.9425 10.5H6.05752L3.28252 7.71752C3.14129 7.57629 2.94974 7.49695 2.75002 7.49695C2.55029 7.49695 2.35874 7.57629 2.21752 7.71752C2.07629 7.85874 1.99695 8.05029 1.99695 8.25002C1.99695 8.44974 2.07629 8.64129 2.21752 8.78252L5.00002 11.5575V21.75C5.00002 22.3468 5.23707 22.919 5.65903 23.341C6.08098 23.763 6.65328 24 7.25002 24H17.75C18.3468 24 18.9191 23.763 19.341 23.341C19.763 22.919 20 22.3468 20 21.75V11.5575L22.7825 8.78252C22.8528 8.71279 22.9086 8.62984 22.9467 8.53845C22.9848 8.44705 23.0044 8.34902 23.0044 8.25002C23.0044 8.15101 22.9848 8.05298 22.9467 7.96158C22.9086 7.87019 22.8528 7.78724 22.7825 7.71752ZM18.5 21.75C18.5 21.9489 18.421 22.1397 18.2803 22.2803C18.1397 22.421 17.9489 22.5 17.75 22.5H7.25002C7.0511 22.5 6.86034 22.421 6.71969 22.2803C6.57903 22.1397 6.50002 21.9489 6.50002 21.75V12H18.5V21.75Z" fill="#101010"/>
<path d="M10.25 21H8.75C8.55109 21 8.36032 20.921 8.21967 20.7803C8.07902 20.6397 8 20.4489 8 20.25C8 20.0511 8.07902 19.8603 8.21967 19.7197C8.36032 19.579 8.55109 19.5 8.75 19.5H10.25C10.4489 19.5 10.6397 19.579 10.7803 19.7197C10.921 19.8603 11 20.0511 11 20.25C11 20.4489 10.921 20.6397 10.7803 20.7803C10.6397 20.921 10.4489 21 10.25 21Z" fill="#8B62F1"/>
<path d="M12.5 6.75002C12.4013 6.75059 12.3035 6.73167 12.2121 6.69434C12.1207 6.65702 12.0376 6.60203 11.9675 6.53252L9.71752 4.28252C9.57629 4.14129 9.49695 3.94974 9.49695 3.75002C9.49695 3.55029 9.57629 3.35874 9.71752 3.21752C9.85874 3.07629 10.0503 2.99695 10.25 2.99695C10.4497 2.99695 10.6413 3.07629 10.7825 3.21752L12.5 4.94252L16.4675 0.967517C16.6087 0.826289 16.8003 0.746948 17 0.746948C17.1997 0.746948 17.3913 0.826289 17.5325 0.967517C17.6737 1.10874 17.7531 1.30029 17.7531 1.50002C17.7531 1.69974 17.6737 1.89129 17.5325 2.03252L13.0325 6.53252C12.9624 6.60203 12.8793 6.65702 12.7879 6.69434C12.6966 6.73167 12.5987 6.75059 12.5 6.75002Z" fill="#101010"/>
</g>
<defs>
<clipPath id="clip0_189_224">
<rect width="24" height="24" fill="white" transform="translate(0.5)"/>
</clipPath>
</defs>
</svg>
