<svg width="25" height="24" viewBox="0 0 25 24" fill="none" xmlns="http://www.w3.org/2000/svg">
<path d="M22.7695 14.0861C22.5518 13.9604 22.4347 13.7181 22.4713 13.4687C22.5421 12.9851 22.5781 12.491 22.5781 12C22.5781 11.509 22.5421 11.0149 22.4713 10.5313C22.4347 10.2819 22.5518 10.0395 22.7695 9.91388C23.7323 9.35798 24.0634 8.12231 23.5075 7.15941L22.1958 4.88742C21.6399 3.92452 20.4042 3.59348 19.4408 4.1497C19.2228 4.27556 18.9543 4.25564 18.7567 4.09898C17.9827 3.48539 17.1262 2.99044 16.2111 2.62786C15.9784 2.5357 15.8281 2.31356 15.8281 2.06198V2.01642C15.8281 0.904547 14.9235 0 13.8117 0H11.1882C10.0764 0 9.17185 0.904547 9.17185 2.01642V2.06198C9.17185 2.31361 9.02152 2.5357 8.78892 2.62791C7.87378 2.99048 7.01733 3.48544 6.24328 4.09908C6.04571 4.25569 5.77716 4.27561 5.55858 4.14942C4.59567 3.59353 3.36005 3.92461 2.80416 4.88752L1.49241 7.1595C0.936519 8.12241 1.26764 9.35803 2.2305 9.91392C2.44819 10.0396 2.56528 10.282 2.52872 10.5314C2.4578 11.0149 2.42185 11.509 2.42185 12C2.42185 12.491 2.4578 12.9851 2.52868 13.4687C2.56524 13.7181 2.44814 13.9605 2.23046 14.0861C1.2676 14.642 0.936472 15.8777 1.49241 16.8406L2.80411 19.1126C3.36005 20.0754 4.59572 20.4065 5.55914 19.8503C5.77721 19.7244 6.04566 19.7443 6.24328 19.901C7.01728 20.5146 7.87378 21.0096 8.78892 21.3721C9.02152 21.4642 9.17185 21.6864 9.17185 21.938V21.9836C9.17185 23.0955 10.0764 24 11.1883 24H13.8117C14.9236 24 15.8281 23.0955 15.8281 21.9836V21.938C15.8281 21.6864 15.9784 21.4643 16.211 21.3721C17.1261 21.0096 17.9826 20.5146 18.7567 19.9009C18.9542 19.7443 19.2228 19.7243 19.4414 19.8506C20.4042 20.4065 21.6398 20.0754 22.1958 19.1125L23.5076 16.8405C24.0635 15.8777 23.7323 14.642 22.7695 14.0861ZM22.2897 16.1375L20.978 18.4094C20.8098 18.7008 20.4359 18.801 20.1439 18.6324C19.4231 18.2163 18.5356 18.2817 17.8831 18.799C17.217 19.3271 16.4802 19.7529 15.693 20.0648C14.9208 20.3707 14.4218 21.106 14.4218 21.938V21.9836C14.4218 22.32 14.1481 22.5938 13.8117 22.5938H11.1882C10.8518 22.5938 10.578 22.32 10.578 21.9836V21.938C10.578 21.106 10.0791 20.3707 9.30685 20.0648C8.51972 19.7529 7.78294 19.3271 7.11685 18.799C6.75014 18.5083 6.30938 18.3603 5.86547 18.3603C5.51944 18.3603 5.17144 18.4503 4.85541 18.6328C4.56403 18.801 4.19016 18.7008 4.02193 18.4094L2.71022 16.1375C2.54199 15.8461 2.64216 15.4722 2.93353 15.3039C3.65339 14.8883 4.04063 14.0879 3.91997 13.2647C3.85903 12.8485 3.8281 12.423 3.8281 12C3.8281 11.577 3.85903 11.1515 3.92002 10.7353C4.04068 9.91209 3.65344 9.11166 2.93358 8.69606C2.64221 8.52783 2.54203 8.15395 2.71022 7.86258L4.02193 5.59059C4.19011 5.29922 4.56408 5.19905 4.85602 5.36761C5.57686 5.78377 6.4643 5.71838 7.11685 5.20102C7.78294 4.67297 8.51977 4.24711 9.30685 3.9353C10.0791 3.6293 10.5781 2.89402 10.5781 2.06198V2.01642C10.5781 1.67995 10.8518 1.40625 11.1883 1.40625H13.8117C14.1481 1.40625 14.4218 1.67995 14.4218 2.01642V2.06198C14.4218 2.89402 14.9208 3.62934 15.693 3.93525C16.4801 4.24706 17.217 4.67292 17.883 5.20097C18.5356 5.71838 19.423 5.78377 20.1444 5.36723C20.4358 5.199 20.8097 5.29917 20.978 5.59055L22.2897 7.86248C22.4579 8.15386 22.3577 8.52778 22.0664 8.69602C21.3465 9.11166 20.9593 9.91209 21.0799 10.7352C21.1409 11.1515 21.1718 11.577 21.1718 12C21.1718 12.423 21.1409 12.8485 21.0799 13.2647C20.9593 14.0879 21.3465 14.8883 22.0664 15.3039C22.3577 15.4722 22.4579 15.8461 22.2897 16.1375Z" fill="#101010"/>
<path d="M12.5 5.29688C8.80386 5.29688 5.79688 8.30386 5.79688 12C5.79688 15.6961 8.80386 18.7031 12.5 18.7031C16.1961 18.7031 19.2031 15.6961 19.2031 12C19.2031 8.30386 16.1961 5.29688 12.5 5.29688ZM12.5 17.2969C9.57927 17.2969 7.20312 14.9207 7.20312 12C7.20312 9.07927 9.57927 6.70312 12.5 6.70312C15.4207 6.70312 17.7969 9.07927 17.7969 12C17.7969 14.9207 15.4207 17.2969 12.5 17.2969Z" fill="#8B62F1"/>
<path d="M13.2791 11.3062C12.8309 11.1483 12.3373 10.958 12.072 10.7498C12.0547 10.7363 12.0219 10.6547 12.0448 10.5333C12.0556 10.4752 12.1062 10.2806 12.2933 10.2244C12.4951 10.1637 12.7545 10.2664 12.9738 10.3922C13.2532 10.5526 13.607 10.4954 13.8253 10.2584C14.135 9.92236 14.0412 9.38372 13.6359 9.17264C13.5011 9.10247 13.355 9.03628 13.2021 8.97989C13.1914 8.60095 12.8815 8.29688 12.5 8.29688C12.1434 8.29688 11.8495 8.56261 11.8038 8.90672C11.2174 9.11695 10.7838 9.6322 10.663 10.2727C10.5453 10.8956 10.753 11.5027 11.2039 11.8566C11.6281 12.1894 12.2267 12.4261 12.8108 12.6323C13.1591 12.7556 13.1947 13.0055 13.1628 13.1934C13.1277 13.4025 12.9477 13.7578 12.4953 13.7606C12.0261 13.7634 11.9155 13.7466 11.5728 13.522C11.248 13.3097 10.812 13.4006 10.5997 13.7255C10.3869 14.0508 10.4783 14.4862 10.8031 14.6991C11.1814 14.9466 11.48 15.0676 11.8084 15.1235C11.8669 15.4529 12.1539 15.7031 12.5 15.7031C12.8738 15.7031 13.1787 15.4111 13.201 15.0429C13.8937 14.7933 14.4219 14.1881 14.5498 13.4264C14.7083 12.4833 14.1978 11.6311 13.2791 11.3062Z" fill="#8B62F1"/>
</svg>
