<svg width="25" height="24" viewBox="0 0 25 24" fill="none" xmlns="http://www.w3.org/2000/svg">
<g clip-path="url(#clip0_209_733)">
<path d="M13.5869 8.55368C13.0579 8.32999 13.058 8.24758 13.058 8.17491C13.058 8.10589 13.0967 7.99015 13.3559 7.99015C13.6793 7.99015 14.0121 8.16691 14.2677 8.34922L14.649 7.31999C14.3999 7.15584 14.1001 7.00691 13.807 6.95204V6.33435H12.7868V7.01717C12.2368 7.20912 11.8967 7.67753 11.8967 8.24722C11.8967 9.02266 12.4918 9.36584 13.0734 9.59912C13.5357 9.79056 13.5357 9.92625 13.5357 10.0073C13.5357 10.1634 13.3888 10.2643 13.1614 10.2643C12.7916 10.2643 12.4205 10.0495 12.147 9.81897L11.7798 10.8658C12.0572 11.095 12.3905 11.2504 12.7454 11.311V11.9502H13.7713V11.2487C14.3383 11.0489 14.7028 10.5486 14.7028 9.96507C14.7028 9.12635 14.1065 8.77025 13.5869 8.55368C14.1065 8.77025 13.0579 8.32999 13.5869 8.55368Z" fill="#101010"/>
<path d="M18.4472 3.87L13.7805 0.727489C12.377 -0.217691 10.5462 -0.243896 9.11641 0.660771C7.94482 1.40195 6.59708 1.87728 5.2179 2.03605C5.15036 1.65087 4.81503 1.35785 4.41056 1.35785H1.32051C0.867385 1.35785 0.5 1.72523 0.5 2.17841V8.44857C0.5 8.9018 0.867385 9.26913 1.32051 9.26913C1.32051 9.26913 4.46764 9.26759 4.49564 9.26472L8.40318 10.1387C8.60733 11.1484 9.11826 12.0717 9.87938 12.7852C10.8012 13.6493 12.0039 14.1253 13.266 14.1253C16.0035 14.1253 18.2307 11.89 18.2307 9.14231C18.2307 8.91508 18.2152 8.69144 18.1857 8.47226C19.0961 8.00062 19.6604 7.03308 19.6282 6.00975C19.6311 6.10185 19.7821 4.70067 18.4472 3.87ZM2.14103 2.99903H3.59005V7.62805H2.14103V2.99903ZM13.266 12.4842C11.8011 12.4842 10.5336 11.5109 10.1017 10.1605C10.853 9.90826 11.4624 9.29303 11.6796 8.46698C11.86 7.78082 11.7213 7.01975 11.3149 6.43928C11.8775 6.02816 12.5581 5.80051 13.266 5.80051C15.0987 5.80051 16.5897 7.29969 16.5897 9.14241C16.5897 10.9851 15.0987 12.4842 13.266 12.4842ZM13.266 4.15939C12.0135 4.15939 10.8181 4.63334 9.90615 5.4758C8.99051 5.24975 8.06692 5.05267 7.14769 4.84169C6.70574 4.74021 6.2658 5.01621 6.16441 5.4579C6.06303 5.89959 6.33892 6.33985 6.78062 6.44123L9.5021 7.0659C9.93687 7.16569 10.2054 7.62 10.0925 8.04969C9.98313 8.46559 9.57123 8.71831 9.15421 8.62513L5.23103 7.74759V3.68169C6.90805 3.54159 8.57492 2.94523 9.99369 2.04769C10.8735 1.49092 12.0002 1.50708 12.8638 2.08877L17.5306 5.23128C17.8105 5.41985 17.9772 5.72236 17.9879 6.06134C17.9974 6.3618 17.8825 6.64128 17.6702 6.84441C16.8412 5.25026 15.1783 4.15939 13.266 4.15939Z" fill="#101010"/>
<path d="M23.6852 14.7357L20.5933 14.714C20.3075 14.714 20.0404 14.8614 19.8908 15.1031C19.327 14.6233 18.6138 14.1935 17.7857 14.0668C16.7495 13.9081 15.75 14.2329 14.8128 15.0318L12.3471 15.9705C11.8637 16.127 11.4966 16.5363 11.3366 17.0998C11.2162 17.5239 11.2249 17.9895 11.3451 18.4177L9.38696 18.2928C8.10958 18.1101 6.81348 18.4829 5.82502 19.3184C4.68948 20.2781 5.22317 22.3336 6.71404 22.5943L14.4826 23.9488C15.086 24.0539 15.7285 23.996 16.3035 23.7846C16.3081 23.7829 19.8114 22.4222 19.8114 22.4222C19.9233 22.7515 20.2444 22.9872 20.5939 22.979L23.6858 22.9547C24.1364 22.9512 24.4999 22.5849 24.4999 22.1341L24.5 15.5562C24.5 15.1053 24.1361 14.7388 23.6852 14.7357ZM15.7307 22.2467C15.422 22.3589 15.088 22.3884 14.7645 22.332L7.09686 20.9952C6.83686 20.8983 6.76599 20.7572 6.8843 20.5718C7.52091 20.0337 8.35707 19.7966 9.17814 19.9209C9.20158 19.9244 12.9191 20.1626 12.9191 20.1626C13.156 20.2425 13.4168 20.2581 13.6937 20.1562L16.2753 19.2069L15.7089 17.6666L13.3516 18.5335C13.2885 18.4782 13.1938 18.3858 13.055 18.2315C12.8637 18.0189 12.8685 17.6432 12.9284 17.5052L15.5343 16.5131C15.629 16.4771 15.7162 16.4238 15.7915 16.356C16.3866 15.82 16.9563 15.6017 17.5331 15.6884C18.5085 15.8351 19.3838 16.8409 19.767 17.396L19.767 20.6789L15.7307 22.2467ZM22.8589 21.32L21.408 21.3315L21.4081 16.361L22.859 16.3711L22.8589 21.32Z" fill="#8B62F1"/>
</g>
<defs>
<clipPath id="clip0_209_733">
<rect width="24" height="24" fill="white" transform="translate(0.5)"/>
</clipPath>
</defs>
</svg>
