<svg width="24" height="24" viewBox="0 0 24 24" fill="none" xmlns="http://www.w3.org/2000/svg">
<g clip-path="url(#clip0_119_3705)">
<path d="M24 12.6C24.0406 12.807 24.0003 13.0217 23.8875 13.2L18 21C17.6507 21.4657 17.1978 21.8437 16.6771 22.1041C16.1563 22.3645 15.5822 22.5 15 22.5H8.745C8.14847 22.5005 7.57655 22.7379 7.155 23.16L6.5325 23.7825C6.46278 23.8528 6.37983 23.9086 6.28843 23.9467C6.19704 23.9847 6.09901 24.0044 6 24.0044C5.90099 24.0044 5.80296 23.9847 5.71157 23.9467C5.62017 23.9086 5.53722 23.8528 5.4675 23.7825C5.39721 23.7128 5.34141 23.6298 5.30333 23.5384C5.26526 23.447 5.24565 23.349 5.24565 23.25C5.24565 23.151 5.26526 23.053 5.30333 22.9616C5.34141 22.8702 5.39721 22.7872 5.4675 22.7175L6.09 22.095C6.43889 21.747 6.85296 21.4712 7.30852 21.2833C7.76409 21.0954 8.25221 20.9991 8.745 21H15C15.3493 21 15.6938 20.9187 16.0062 20.7625C16.3187 20.6062 16.5904 20.3794 16.8 20.1L22.1025 13.035C21.7003 12.9311 21.2772 12.9406 20.8801 13.0624C20.483 13.1842 20.1273 13.4135 19.8525 13.725L16.41 17.6475C16.3405 17.7589 16.2429 17.8501 16.1271 17.9119C16.0113 17.9738 15.8812 18.0042 15.75 18H9.75C9.55109 18 9.36032 17.921 9.21967 17.7803C9.07902 17.6397 9 17.4489 9 17.25C9 17.0511 9.07902 16.8603 9.21967 16.7197C9.36032 16.579 9.55109 16.5 9.75 16.5H15C15 16.1022 14.842 15.7206 14.5607 15.4393C14.2794 15.158 13.8978 15 13.5 15H12.8025C12.1299 15.0017 11.472 14.8033 10.9125 14.43C9.85096 13.7202 8.57591 13.4009 7.30514 13.5268C6.03437 13.6526 4.8467 14.2158 3.945 15.12L1.2825 17.7825C1.14127 17.9237 0.949728 18.0031 0.750002 18.0031C0.550275 18.0031 0.358729 17.9237 0.217502 17.7825C0.0762739 17.6413 -0.00306702 17.4497 -0.00306702 17.25C-0.00306702 17.0503 0.0762739 16.8587 0.217502 16.7175L2.88 14.055C4.02941 12.9082 5.54013 12.1943 7.15591 12.0343C8.7717 11.8744 10.3931 12.2783 11.745 13.1775C12.0579 13.3872 12.4259 13.4994 12.8025 13.5H13.5C14.114 13.5033 14.7122 13.695 15.2138 14.0491C15.7154 14.4031 16.0963 14.9026 16.305 15.48L18.705 12.75C19.3037 12.0663 20.1303 11.6232 21.0311 11.5032C21.9319 11.3832 22.8457 11.5944 23.6025 12.0975C23.7941 12.2083 23.9363 12.388 24 12.6Z" fill="#101010"/>
<path d="M12 0.75H15V3C15 3.19891 14.921 3.38968 14.7803 3.53033C14.6397 3.67098 14.4489 3.75 14.25 3.75H12.75C12.5511 3.75 12.3603 3.67098 12.2197 3.53033C12.079 3.38968 12 3.19891 12 3V0.75Z" fill="#8B62F1"/>
<path d="M16.5 10.5H10.5C9.90326 10.5 9.33097 10.2629 8.90901 9.84099C8.48705 9.41903 8.25 8.84674 8.25 8.25V2.25C8.25 1.65326 8.48705 1.08097 8.90901 0.65901C9.33097 0.237053 9.90326 0 10.5 0L16.5 0C17.0967 0 17.669 0.237053 18.091 0.65901C18.5129 1.08097 18.75 1.65326 18.75 2.25V8.25C18.75 8.84674 18.5129 9.41903 18.091 9.84099C17.669 10.2629 17.0967 10.5 16.5 10.5ZM10.5 1.5C10.3011 1.5 10.1103 1.57902 9.96967 1.71967C9.82902 1.86032 9.75 2.05109 9.75 2.25V8.25C9.75 8.44891 9.82902 8.63968 9.96967 8.78033C10.1103 8.92098 10.3011 9 10.5 9H16.5C16.6989 9 16.8897 8.92098 17.0303 8.78033C17.171 8.63968 17.25 8.44891 17.25 8.25V2.25C17.25 2.05109 17.171 1.86032 17.0303 1.71967C16.8897 1.57902 16.6989 1.5 16.5 1.5H10.5Z" fill="#8B62F1"/>
</g>
<defs>
<clipPath id="clip0_119_3705">
<rect width="24" height="24" fill="white"/>
</clipPath>
</defs>
</svg>
