<svg width="25" height="24" viewBox="0 0 25 24" fill="none" xmlns="http://www.w3.org/2000/svg">
<path d="M9.69125 17H14V5.08333C14 4.79602 13.8815 4.52047 13.6705 4.3173C13.4595 4.11414 13.1734 4 12.875 4H5" stroke="#101010" stroke-width="1.5" stroke-linecap="round" stroke-linejoin="round"/>
<path d="M3 13V16C3 16.2652 3.11268 16.5196 3.31325 16.7071C3.51383 16.8946 3.78586 17 4.06952 17H5" stroke="#101010" stroke-width="1.5" stroke-linecap="round" stroke-linejoin="round"/>
<path d="M15.8699 17H14V6.00075H18.2498C18.4742 5.99162 18.6949 6.06587 18.8763 6.21153C19.0577 6.35719 19.1892 6.56578 19.2497 6.8037L19.9997 9.85049L21.2396 10.1915C21.4615 10.2517 21.6579 10.3937 21.7962 10.5938C21.9344 10.7939 22.0062 11.0401 21.9996 11.2914V15.9001C21.9996 16.1918 21.8942 16.4716 21.7067 16.6778C21.5192 16.8841 21.2648 17 20.9996 17H20.1097" stroke="#101010" stroke-width="1.5" stroke-linecap="round" stroke-linejoin="round"/>
<path d="M3 8H9.375M7.25 14.6C6.82971 14.6 6.41887 14.729 6.06941 14.9708C5.71996 15.2125 5.44759 15.5561 5.28676 15.9581C5.12592 16.3601 5.08384 16.8024 5.16583 17.2292C5.24782 17.656 5.45021 18.048 5.7474 18.3556C6.04458 18.6633 6.42322 18.8728 6.83543 18.9577C7.24764 19.0426 7.67491 18.999 8.0632 18.8325C8.4515 18.666 8.78337 18.384 9.01687 18.0223C9.25037 17.6605 9.375 17.2351 9.375 16.8C9.375 16.2165 9.15112 15.6569 8.7526 15.2444C8.35409 14.8318 7.81359 14.6 7.25 14.6ZM17.875 14.6C17.4547 14.6 17.0439 14.729 16.6944 14.9708C16.345 15.2125 16.0726 15.5561 15.9118 15.9581C15.7509 16.3601 15.7088 16.8024 15.7908 17.2292C15.8728 17.656 16.0752 18.048 16.3724 18.3556C16.6696 18.6633 17.0482 18.8728 17.4604 18.9577C17.8726 19.0426 18.2999 18.999 18.6882 18.8325C19.0765 18.666 19.4084 18.384 19.6419 18.0223C19.8754 17.6605 20 17.2351 20 16.8C20 16.2165 19.7761 15.6569 19.3776 15.2444C18.9791 14.8318 18.4386 14.6 17.875 14.6Z" stroke="#8B62F1" stroke-width="1.5" stroke-linecap="round" stroke-linejoin="round"/>
</svg>
