<svg width="19" height="18" viewBox="0 0 19 18" fill="none" xmlns="http://www.w3.org/2000/svg">
<path d="M2.95617 11.4718C2.31872 10.6436 2 10.2295 2 9C2 7.77045 2.31872 7.3564 2.95617 6.52825C4.22897 4.87467 6.36358 3 9.5 3C12.6364 3 14.771 4.87467 16.0438 6.52825C16.6812 7.3564 17 7.77045 17 9C17 10.2295 16.6812 10.6436 16.0438 11.4718C14.771 13.1253 12.6364 15 9.5 15C6.36358 15 4.22897 13.1253 2.95617 11.4718Z" stroke="#2E3EBF"/>
<path d="M11.75 9C11.75 10.2427 10.7427 11.25 9.5 11.25C8.25732 11.25 7.25 10.2427 7.25 9C7.25 7.75732 8.25732 6.75 9.5 6.75C10.7427 6.75 11.75 7.75732 11.75 9Z" stroke="#2E3EBF"/>
</svg>
